<svg xmlns="http://www.w3.org/2000/svg" width="40" height="41" fill="none"  xmlns:v="https://vecta.io/nano"><g clip-path="url(#A)" fill-rule="evenodd" fill="#f0b90b"><path d="M15.341 18.584l4.661-4.659 4.663 4.663 2.711-2.713L20.002 8.5l-7.374 7.374 2.713 2.711zM8 20.5l2.712-2.712 2.712 2.712-2.712 2.712L8 20.5zm7.341 1.916l4.661 4.661 4.663-4.663 2.713 2.709-.002.002-7.374 7.376-7.374-7.372-.004-.004 2.717-2.709zm11.235-1.915l2.712-2.711L32 20.501l-2.712 2.712-2.712-2.712z"/><path d="M22.753 20.499l-2.751-2.752-2.034 2.034-.235.233-.482.482-.004.004.004.006 2.751 2.749 2.751-2.752.002-.002h-.002z"/></g><defs><clipPath id="A"><path fill="#fff" transform="translate(8 8.5)" d="M0 0h24v24H0z"/></clipPath></defs></svg>
