<svg width="129" height="32" viewBox="0 0 129 32" fill="none" xmlns="http://www.w3.org/2000/svg">
<path d="M31.9979 15.8785V27.0233C31.9712 28.329 31.4342 29.5722 30.5022 30.4861C29.5702 31.4001 28.3174 31.912 27.0126 31.912C25.7078 31.912 24.455 31.4001 23.5229 30.4861C22.5909 29.5722 22.0539 28.329 22.0272 27.0233V13.8454C22.0272 11.0864 31.9979 15.8785 31.9979 15.8785Z" fill="#017AFF"/>
<g opacity="0.1">
<path opacity="0.1" d="M31.9979 16.5645V21.2269C29.8788 26.0526 25.7869 26.6194 25.7869 26.6194L29.5026 17.4744C30.4389 17.3823 31.2226 16.7569 31.9979 16.5645Z" fill="black"/>
</g>
<path d="M31.9999 15.9937C32.0022 18.3982 31.4621 20.7723 30.4199 22.9388C29.3778 25.1054 27.8605 27.0085 25.9812 28.5064C25.4094 28.9665 24.806 29.3859 24.1755 29.7615L23.9436 29.8995C23.7973 29.9832 23.651 30.0627 23.5005 30.1422C23.5799 30.1031 23.6594 30.0592 23.7388 30.0104C21.4128 31.211 18.3825 31.0562 15.7597 29.6025C12.6563 27.8831 10.1171 24.3481 9.98755 19.0832C9.98755 18.9367 9.98755 18.7882 9.98755 18.6355C9.98921 19.5354 10.3471 20.3979 10.9828 21.0342C11.6186 21.6705 12.4803 22.0288 13.3794 22.0304H18.6437C24.1484 22.0304 27.8391 19.4388 29.6008 16.2447C31.0909 13.5484 31.2142 10.4297 29.9122 8.08691C29.9916 8.22497 30.0668 8.36302 30.14 8.50526C30.2131 8.6475 30.2675 8.74372 30.326 8.86295C30.3845 8.98218 30.4158 9.04911 30.4597 9.13906L30.6018 9.44445C30.7063 9.68291 30.8108 9.92136 30.9028 10.1619C30.9467 10.2749 30.9906 10.392 31.0323 10.507C31.0741 10.6221 31.1118 10.7309 31.1494 10.8417L31.1724 10.9087C31.21 11.0174 31.2455 11.1178 31.2789 11.2392C31.4231 11.6931 31.5423 12.1553 31.6426 12.6218C31.6656 12.7327 31.6886 12.831 31.7095 12.9523C31.7304 13.0736 31.745 13.1385 31.7596 13.2326C31.7742 13.3267 31.791 13.4187 31.8056 13.5129C31.8265 13.6467 31.8453 13.7743 31.862 13.9061C31.8787 14.0379 31.8913 14.1383 31.9038 14.2554C31.9094 14.2858 31.9128 14.3166 31.9143 14.3475C31.9143 14.4228 31.9289 14.5002 31.9352 14.5797C31.9477 14.6947 31.9561 14.8077 31.9623 14.9248C31.977 15.1172 31.9853 15.3076 31.9916 15.4979C31.9979 15.6883 31.9999 15.8263 31.9999 15.9937Z" fill="#01438D"/>
<path d="M23.7322 30.0101C23.6528 30.0575 23.5734 30.1014 23.4939 30.1418C23.3435 30.2213 23.1951 30.2987 23.0425 30.374C22.7395 30.5204 22.4302 30.6627 22.1146 30.7924C21.96 30.8572 21.8012 30.9221 21.6403 30.9806C21.4793 31.0392 21.3519 31.0873 21.2056 31.1375C21.0927 31.1773 20.9715 31.2191 20.8545 31.2546C20.7374 31.2902 20.6016 31.3341 20.472 31.3676C20.4236 31.3861 20.374 31.4015 20.3236 31.4136C20.2317 31.4387 20.1376 31.4659 20.0478 31.4868L19.7657 31.5559C19.7221 31.5707 19.6773 31.5819 19.6319 31.5893C19.5044 31.6207 19.3749 31.65 19.2474 31.673C19.1199 31.696 19.0384 31.7211 18.9193 31.7378C18.8001 31.7546 18.6539 31.788 18.5201 31.809C18.3864 31.8299 18.2463 31.8508 18.1021 31.8675L17.7385 31.9094C17.6173 31.924 17.5003 31.9345 17.379 31.9449L17.0008 31.9742C16.8336 31.9847 16.6664 31.9909 16.4971 31.9972C16.3279 32.0035 16.1607 31.9972 15.9935 31.9972C15.8263 31.9972 15.6988 31.9972 15.5546 31.9972L15.2746 31.9847C15.2154 31.9878 15.1561 31.9878 15.0969 31.9847C15.0154 31.9847 14.9318 31.9847 14.8524 31.97C14.6999 31.97 14.5473 31.947 14.3989 31.9324H14.378C14.2192 31.9177 14.0645 31.8989 13.9078 31.8759C13.8096 31.8633 13.6988 31.8529 13.6131 31.8341C13.4857 31.8173 13.3603 31.7964 13.237 31.7755L12.8378 31.7002C12.7082 31.673 12.5828 31.6479 12.4574 31.6186L12.1879 31.5559L11.8702 31.4743C11.6612 31.4178 11.4522 31.3592 11.2432 31.2923C11.1137 31.2546 10.9841 31.2086 10.8587 31.1647C10.3881 31.0074 9.92567 30.8266 9.47314 30.6229C9.38537 30.5853 9.30177 30.5435 9.21191 30.5016C8.97576 30.3929 8.74169 30.2757 8.50554 30.1502C8.39478 30.0916 8.28402 30.0289 8.17534 29.9682C8.06667 29.9076 7.95382 29.8406 7.84515 29.7779L7.52958 29.5708C6.99583 29.237 6.48287 28.8709 5.99354 28.4747C5.90577 28.4036 5.8159 28.3346 5.73231 28.2656C5.64871 28.1965 5.57139 28.1296 5.4878 28.0564C5.4042 27.9832 5.31225 27.9016 5.22447 27.8179C4.93399 27.5565 4.65604 27.2845 4.38853 26.9959C4.27359 26.8787 4.16492 26.7595 4.05625 26.6361C3.94758 26.5127 3.83472 26.3809 3.72605 26.2512C3.65291 26.1634 3.57976 26.0755 3.50662 25.9835C3.50394 25.9768 3.50043 25.9705 3.49617 25.9647C3.44601 25.9061 3.39586 25.8412 3.34779 25.7764C3.26419 25.6697 3.1806 25.5672 3.10119 25.4522C2.99042 25.3016 2.8922 25.1468 2.77308 24.9878C2.69158 24.8623 2.60589 24.7347 2.52439 24.605C2.51321 24.5914 2.50341 24.5767 2.49513 24.5611C2.41572 24.4328 2.3363 24.3031 2.25689 24.172C2.20464 24.0863 2.15448 24.0005 2.10433 23.9127C0.802351 21.5637 0.925652 18.4449 2.41572 15.7549C4.13357 12.6487 7.66542 10.1072 12.9256 9.97754C13.0719 9.97754 13.2202 9.97754 13.3728 9.97754C12.4759 9.9764 11.6149 10.3302 10.9776 10.9619C10.3402 11.5935 9.97825 12.4517 9.97053 13.3494V18.6352C9.97053 24.1448 12.5598 27.8388 15.7511 29.6022C18.3759 31.0559 21.4062 31.2107 23.7322 30.0101Z" fill="#0156B3"/>
<path d="M22.0356 13.3488C22.034 12.449 21.6761 11.5864 21.0403 10.9501C20.4046 10.3138 19.5429 9.9556 18.6438 9.95394H13.3627C7.85807 9.95394 4.16739 12.5456 2.40565 15.7397C0.915587 18.4359 0.792286 21.5547 2.09426 23.8974C2.01485 23.7594 1.93961 23.6213 1.86647 23.4791C1.79332 23.3368 1.73899 23.2406 1.68047 23.1214C1.62196 23.0022 1.59061 22.9352 1.54672 22.8453L1.40461 22.5399C1.24996 22.1906 1.10367 21.8371 0.974103 21.4773C0.934396 21.3643 0.894688 21.2535 0.857071 21.1426L0.842442 21.0861C0.804825 20.9774 0.769297 20.877 0.73586 20.7556C0.59166 20.3017 0.472539 19.8395 0.372226 19.373C0.349237 19.2622 0.326249 19.1638 0.30535 19.0425C0.242655 18.7246 0.194588 18.415 0.152791 18.0887C0.127713 17.9695 0.115174 17.8565 0.102635 17.7394C0.0900958 17.6222 0.0796465 17.5302 0.0712871 17.4152C0.0629277 17.3001 0.0503886 17.1872 0.0441191 17.07C0.0294901 16.8776 0.0211307 16.6872 0.00650176 16.5052C-0.0081272 16.3233 0.00650176 16.1685 0.00650176 16.0011C0.00650176 15.8338 0.00650176 15.7062 0.00650176 15.5619C0.00650176 15.4657 0.00650176 15.3694 0.016951 15.2711C0.0172463 15.2117 0.0207345 15.1524 0.0274003 15.0933C0.0274003 15.0118 0.0274003 14.9281 0.0420292 14.8486C0.0420292 14.6959 0.0650176 14.5432 0.0796465 14.3947C0.0796465 14.3947 0.0796465 14.38 0.0796465 14.3738C0.0942755 14.2148 0.113084 14.06 0.136073 13.9031C0.148612 13.8048 0.163241 13.694 0.17787 13.6082C0.194588 13.4806 0.215487 13.3551 0.236385 13.2317C0.257284 13.1083 0.294901 12.9493 0.319979 12.8238C0.345058 12.6983 0.372226 12.5686 0.401484 12.4431L0.464179 12.1733C0.491347 12.0666 0.516425 11.9641 0.545683 11.8553C0.602109 11.6462 0.660625 11.437 0.7275 11.2278C0.765118 11.0981 0.811094 10.9684 0.854981 10.8429C1.01216 10.3719 1.19281 9.90905 1.39625 9.45611C1.43387 9.36826 1.47567 9.28459 1.51746 9.19464C1.62614 8.95828 1.74317 8.72401 1.86856 8.48764C1.92707 8.37678 1.98977 8.26592 2.05038 8.15715C2.11098 8.04838 2.17786 7.93542 2.24055 7.82665C2.30325 7.71788 2.37012 7.61748 2.437 7.50453C2.77124 6.97077 3.13691 6.45739 3.53208 5.9671C3.60314 5.87925 3.6721 5.78931 3.74107 5.70564C3.81003 5.62197 3.87691 5.54457 3.95005 5.4609C4.0232 5.37724 4.1047 5.2852 4.18829 5.19735C4.30533 5.06138 4.43072 4.9296 4.56029 4.79992L4.75046 4.60957C4.83406 4.5259 4.92183 4.44014 5.0096 4.36065C5.12664 4.24561 5.24576 4.13684 5.36906 4.02807C5.49236 3.9193 5.62402 3.80634 5.75359 3.69757C5.84137 3.62436 5.92914 3.55115 6.02109 3.47794L6.0399 3.46748C6.09842 3.41728 6.1632 3.36708 6.22799 3.31897C6.33457 3.2353 6.43697 3.15163 6.55191 3.07215C6.70238 2.96128 6.85703 2.86297 7.01586 2.74374C7.14125 2.66217 7.26873 2.57641 7.3983 2.49483C7.41193 2.48364 7.42663 2.47383 7.44219 2.46554L7.8309 2.22709L8.09631 2.0723C10.4432 0.76915 13.5592 0.892562 16.2467 2.38397C19.3502 4.10128 21.8893 7.63631 22.0189 12.9012C22.0335 13.0476 22.0356 13.1961 22.0356 13.3488Z" fill="#0068D9"/>
<path d="M29.6008 16.2423C27.883 19.3485 24.3511 21.89 19.091 22.0197C18.9447 22.0197 18.7963 22.0197 18.6437 22.0197C19.5428 22.018 20.4046 21.6598 21.0403 21.0235C21.676 20.3872 22.0339 19.5247 22.0356 18.6248V13.3494C22.0356 7.83982 19.4462 4.14581 16.255 2.38458C13.5612 0.89317 10.4452 0.769758 8.10461 2.07291C8.24254 1.99342 8.38047 1.91812 8.52258 1.84491C8.66469 1.7717 8.76083 1.71731 8.87995 1.65874L9.15581 1.52487L9.23522 1.48931L9.46093 1.38264C9.69499 1.27805 9.93741 1.17346 10.1777 1.08143L10.5226 0.951738C10.6354 0.909904 10.7462 0.872253 10.8569 0.834602C10.8761 0.827912 10.8957 0.822325 10.9155 0.817868C11.022 0.780216 11.1244 0.744657 11.2436 0.711189C11.4846 0.635887 11.727 0.566162 11.9708 0.502016C12.0461 0.481099 12.1234 0.462273 12.1986 0.445539C12.3407 0.407888 12.4808 0.37442 12.6166 0.345136L12.9635 0.271925C13.0199 0.259375 13.0722 0.251008 13.1286 0.242641C13.2519 0.215448 13.3815 0.190348 13.5152 0.175706C13.649 0.161063 13.7765 0.135963 13.9081 0.119229C14.0398 0.102495 14.1401 0.0899445 14.2571 0.0773941L14.3491 0.0669355C14.4243 0.0669355 14.5016 0.0522933 14.5811 0.0460181C14.696 0.0334677 14.8089 0.0251008 14.9259 0.0188256H15.0973C15.2289 0.0188256 15.3648 0.00418347 15.4985 0C15.6657 0 15.8371 0 16.0043 0C16.3909 0 16.7712 0.0146421 17.1537 0.0418347C17.3062 0.0418347 17.4588 0.0648437 17.6072 0.0794859H17.6866L17.9353 0.106678L18.0983 0.129687C18.7858 0.217136 19.4666 0.351317 20.1359 0.5313C20.2425 0.560584 20.3449 0.587777 20.4494 0.619153C20.5539 0.650529 20.6583 0.677722 20.7628 0.713281L20.9572 0.776033L21.1474 0.840877C21.2644 0.878528 21.3814 0.918271 21.5006 0.964289C21.6197 1.01031 21.7492 1.05423 21.8725 1.10443C21.9959 1.15464 22.0815 1.1902 22.1923 1.23621C23.2881 1.69275 24.3286 2.27239 25.2936 2.96399C25.4107 3.04556 25.5235 3.13132 25.6385 3.21918C25.7534 3.30703 25.8872 3.40953 26.0105 3.50993C26.1338 3.61033 26.2069 3.66472 26.3051 3.75048L26.4932 3.90945L26.5162 3.93246C26.604 4.00985 26.6917 4.08725 26.7795 4.17092C27.07 4.43238 27.348 4.70431 27.6155 4.99297C27.674 5.05154 27.7262 5.1101 27.7826 5.17076C27.8391 5.23142 27.8913 5.29208 27.9477 5.35275C28.0042 5.41341 28.0606 5.48034 28.1149 5.54518C28.1693 5.61003 28.2257 5.67278 28.2779 5.73762C28.3302 5.80247 28.4242 5.91333 28.4974 6.00537C28.5538 6.07021 28.6019 6.13714 28.6562 6.21454C28.7398 6.32122 28.8234 6.42371 28.9028 6.53876C29.1118 6.82742 29.3208 7.12444 29.5089 7.42984C29.5883 7.55673 29.6677 7.68642 29.7471 7.8189C29.7994 7.90466 29.8495 7.99042 29.8997 8.07827C31.2142 10.4273 31.0909 13.5461 29.6008 16.2423Z" fill="#017AFF"/>
<g opacity="0.1">
<path opacity="0.1" d="M22.0272 12.9012C20.3909 3.07006 11.4401 1.60584 6.02734 3.47376L6.04615 3.4633C6.10467 3.4131 6.16945 3.3629 6.23424 3.31479C6.34082 3.23112 6.44322 3.14745 6.55817 3.06796C6.70864 2.9571 6.86328 2.85879 7.02211 2.73956C7.1475 2.65798 7.27499 2.57222 7.40456 2.49065C7.41819 2.47946 7.43289 2.46965 7.44844 2.46136L7.83716 2.2229L8.0963 2.0723C10.4432 0.76915 13.5592 0.892562 16.2467 2.38397C19.3585 4.10128 21.8935 7.63631 22.0272 12.9012Z" fill="black"/>
</g>
<g opacity="0.1">
<path opacity="0.1" d="M29.6008 16.2425C27.8829 19.3487 24.3511 21.8902 19.0909 22.0199C28.9132 20.3821 30.3761 11.4253 28.5099 6.00977C28.5663 6.07461 28.6144 6.14154 28.6687 6.21894C28.7523 6.32562 28.8359 6.42811 28.9153 6.54316C29.1243 6.83182 29.3333 7.12884 29.5214 7.43424C29.6008 7.56113 29.6802 7.69082 29.7596 7.8233C29.8119 7.90906 29.862 7.99482 29.9122 8.08267C31.2142 10.4275 31.0909 13.5463 29.6008 16.2425Z" fill="black"/>
</g>
<g opacity="0.1">
<path opacity="0.1" d="M25.975 28.5102C25.4032 28.9703 24.7998 29.3897 24.1693 29.7652L23.9373 29.9033C23.7911 29.9869 23.6448 30.0664 23.4943 30.1459C23.5737 30.1069 23.6531 30.0629 23.7325 30.0141C21.4065 31.2148 18.3763 31.06 15.7535 29.6062C12.6501 27.8868 10.1109 24.3518 9.98132 19.0869C11.6156 28.9034 20.5643 30.3802 25.975 28.5102Z" fill="black"/>
</g>
<g opacity="0.1">
<path opacity="0.1" d="M3.49612 25.9776C3.49344 25.9709 3.48993 25.9646 3.48567 25.9588C3.43551 25.9002 3.38536 25.8354 3.33729 25.7705C3.2537 25.6639 3.1701 25.5614 3.09069 25.4463C2.97993 25.2957 2.8817 25.1409 2.76258 24.982C2.68108 24.8565 2.59539 24.7289 2.51389 24.5992C2.50271 24.5855 2.49291 24.5708 2.48463 24.5552C2.40522 24.4269 2.3258 24.2973 2.24639 24.1662C2.19414 24.0804 2.14399 23.9947 2.09383 23.9068C0.791853 21.5578 0.915154 18.439 2.40522 15.749C4.12307 12.6428 7.65492 10.1014 12.9151 9.97168C3.10114 11.6011 1.62779 20.56 3.49612 25.9776Z" fill="black"/>
</g>
<path d="M56.7727 10.1321V22.0229H54.0865V20.4877C53.1378 21.6219 51.741 22.1787 50.0898 22.1787C46.5726 22.1787 44 19.7752 44 16.0775C44 12.3798 46.5726 9.99707 50.0898 9.99707C51.6232 9.99707 52.9758 10.5102 53.9456 11.5779V10.1238L56.7727 10.1321ZM53.996 16.0775C53.996 13.809 52.4626 12.3549 50.4095 12.3549C48.3564 12.3549 46.8461 13.809 46.8461 16.0733C46.8461 18.3376 48.3796 19.7918 50.4095 19.7918C52.4394 19.7918 53.996 18.3501 53.996 16.0775Z" fill="white"/>
<path d="M60.4665 18.3048V5.5H63.2937V18.1054C63.2937 19.2624 63.8574 19.8857 64.9765 19.8857C65.3272 19.8832 65.6735 19.8074 65.9925 19.6634L66.1271 21.8903C65.588 22.0843 65.0181 22.1821 64.4443 22.179C61.9327 22.179 60.4665 20.7768 60.4665 18.3048Z" fill="white"/>
<path d="M74.8106 21.3795C74.1332 21.9134 73.1278 22.1793 72.1033 22.1793C69.4655 22.1793 67.9551 20.7999 67.9551 18.1721V7.50488H70.7739V10.2221H73.9986V12.449H70.7739V18.1056C70.7739 19.2627 71.3818 19.8859 72.442 19.8859C73.0087 19.9021 73.5644 19.7294 74.0197 19.3956L74.8106 21.3795Z" fill="white"/>
<path d="M84.0999 9.99707V12.6478C83.8843 12.6062 83.6653 12.584 83.4457 12.5813C81.3043 12.5813 79.9517 13.8277 79.9517 16.2561V22.0229H77.1329V10.1321H79.8171V11.8688C80.6269 10.6203 82.0931 9.99707 84.0999 9.99707Z" fill="white"/>
<path d="M98.1494 10.1321V22.0229H95.4779V20.4877C94.5292 21.6219 93.1324 22.1787 91.4812 22.1787C87.964 22.1787 85.3809 19.7752 85.3809 16.0775C85.3809 12.3798 87.9535 9.99707 91.4812 9.99707C93.0146 9.99707 94.3672 10.5102 95.337 11.5779V10.1238L98.1494 10.1321ZM95.3769 16.0775C95.3769 13.8049 93.8434 12.359 91.8009 12.359C89.7583 12.359 88.2375 13.8132 88.2375 16.0775C88.2375 18.3418 89.771 19.7959 91.8009 19.7959C93.8308 19.7959 95.3769 18.3501 95.3769 16.0775Z" fill="white"/>
<path d="M113.642 5.5V22.0232H110.937V20.4881C109.988 21.6223 108.591 22.179 106.94 22.179C103.444 22.179 100.852 19.7755 100.852 16.0779C100.852 12.3802 103.444 9.99746 106.94 9.99746C108.497 9.99746 109.872 10.5106 110.819 11.6012V5.5H113.642ZM110.867 16.0779C110.867 13.8052 109.313 12.3594 107.291 12.3594C105.27 12.3594 103.705 13.8136 103.705 16.0779C103.705 18.3422 105.262 19.7963 107.291 19.7963C109.321 19.7963 110.867 18.3505 110.867 16.0779Z" fill="white"/>
<path d="M129 10.1328V20.2204C129 24.5413 126.812 26.5003 122.752 26.5003C120.611 26.5003 118.468 25.9207 117.138 24.8072L118.4 22.7153C119.414 23.5837 120.971 24.1175 122.595 24.1175C125.075 24.1175 126.181 22.9376 126.181 20.532V19.9753C125.279 20.9558 123.926 21.4897 122.437 21.4897C119.347 21.4897 117.25 19.8423 117.25 16.234V10.1328H120.068V15.8871C120.068 18.0247 121.105 19.0488 122.887 19.0488C124.85 19.0405 126.19 17.8606 126.19 15.4716V10.1328H129Z" fill="white"/>
</svg>
