<svg width="24" height="24" viewBox="0 0 24 24" fill="none" xmlns="http://www.w3.org/2000/svg">
<path fill-rule="evenodd" clip-rule="evenodd" d="M17 20V18H19C19.5304 18 20.0391 17.7893 20.4142 17.4142C20.7893 17.0391 21 16.5304 21 16V6C21 5.46957 20.7893 4.96086 20.4142 4.58579C20.0391 4.21071 19.5304 4 19 4H5C4.46957 4 3.96086 4.21071 3.58579 4.58579C3.21071 4.96086 3 5.46957 3 6V16C3 16.5304 3.21071 17.0391 3.58579 17.4142C3.96086 17.7893 4.46957 18 5 18H11.667L15.4 20.8C15.5486 20.9114 15.7252 20.9793 15.9102 20.996C16.0952 21.0126 16.2811 20.9775 16.4472 20.8944C16.6133 20.8114 16.753 20.6837 16.8507 20.5257C16.9483 20.3678 17 20.1857 17 20ZM8 10C7.44772 10 7 9.55228 7 9C7 8.44772 7.44772 8 8 8H16C16.5523 8 17 8.44772 17 9C17 9.55228 16.5523 10 16 10H8ZM8 14C7.44772 14 7 13.5523 7 13C7 12.4477 7.44772 12 8 12H12C12.5523 12 13 12.4477 13 13C13 13.5523 12.5523 14 12 14H8Z" fill="#0D172A" fill-opacity="0.8"/>
</svg>
