<svg xmlns="http://www.w3.org/2000/svg" width="40" height="41" fill="none"  xmlns:v="https://vecta.io/nano"><g fill="#fff" stroke="#141617"><path d="M6.5 7.5A1.5 1.5 0 0 1 8 6h12.5v14h-14V7.5z"/><path d="M6.5 20h14v14H8a1.5 1.5 0 0 1-1.5-1.5V20z"/><path d="M20.5 6H33a1.5 1.5 0 0 1 1.5 1.5V20h-14V6z"/><path d="M20.5 20h14v12.5A1.5 1.5 0 0 1 33 34H20.5V20z"/></g><g fill="#141617"><rect x="11" y="12.5" width="5" height="1" rx=".5"/><rect x="25" y="12.5" width="5" height="1" rx=".5"/></g><g fill="#43b581"><rect x="25" y="25.5" width="5" height="1" rx=".5"/><rect x="25" y="27.5" width="5" height="1" rx=".5"/></g><g fill="#141617"><rect x="12.086" y="24.879" width="5" height="1" rx=".5" transform="rotate(45 12.086 24.879)"/><rect x="13" y="15.5" width="5" height="1" rx=".5" transform="rotate(270 13 15.5)"/><rect x="11.379" y="28.414" width="5" height="1" rx=".5" transform="rotate(315 11.379 28.414)"/></g></svg>