<svg xmlns="http://www.w3.org/2000/svg" width="40" height="40" fill="none" xmlns:v="https://vecta.io/nano"><style><![CDATA[.B{fill-rule:evenodd}.C{fill:#ffc556}]]></style><g clip-path="url(#B)"><g fill="#ffb11a"><path d="M8.947 31.407l.409 1.023 1.023 2.046c-.511-1.841-1.228-3.683-1.944-5.422l.512 2.353zm-.512-2.455l2.251 5.831.716.921-3.069-7.877.102 1.023"/><g class="B"><path d="M8.333 27.724l3.274 8.184.614.716a141.21 141.21 0 0 0-3.887-9.719v.818z"/><path d="M8.333 26.803c1.535 3.274 2.864 6.65 4.092 10.026l.614.511c-1.377-3.814-2.913-7.568-4.604-11.253v.716"/><path d="M8.333 26.087c1.841 3.785 3.478 7.57 5.013 11.458l.511.409c-1.637-4.297-3.478-8.389-5.524-12.481v.614z"/><path d="M8.436 25.473c2.251 4.297 4.092 8.593 5.729 12.685l.512.205a155.52 155.52 0 0 0-6.138-13.504v.614"/><path d="M8.537 24.859a184.84 184.84 0 0 1 6.445 13.708l.409.307c-1.944-5.115-4.194-9.821-6.752-14.527v.512"/><path d="M8.64 24.348c2.66 4.706 5.115 9.616 7.161 14.629l.409.205c-2.148-5.217-4.706-10.332-7.366-15.345l-.205.511z"/><path d="M8.845 23.837a198.32 198.32 0 0 1 7.775 15.447l.409.205c-2.558-5.729-5.217-11.151-8.184-16.061v.409z"/><path d="M8.947 23.427c3.069 5.115 5.934 10.639 8.491 16.164l.409.102c-2.762-5.934-5.729-11.56-8.798-16.777l-.102.409"/><path d="M18.256 39.795h.409c-2.967-6.138-6.138-11.867-9.412-17.289l-.205.409c3.344 5.472 6.417 11.105 9.207 16.88z"/></g><path d="M19.075 39.898h.409c-3.085-6.028-6.465-11.9-10.128-17.596v.205c3.581 5.627 6.854 11.458 9.821 17.391h-.102z"/><path d="M19.894 40h.409c-3.285-6.239-6.87-12.316-10.742-18.21l-.205.409c3.785 5.729 7.366 11.56 10.537 17.698"/><path d="M20.711 40h.409c-3.499-6.343-7.288-12.522-11.355-18.517l-.205.307C13.96 28.338 17.745 34.578 20.814 40"/><path d="M21.633 40h.307c-3.785-6.445-7.775-12.788-12.072-18.926l-.102.409C13.858 27.417 17.95 33.657 21.53 40"/><g class="B"><path d="M22.655 39.898a280.3 280.3 0 0 0-12.481-19.13l-.205.307c4.399 6.138 8.593 12.378 12.481 18.824h.409"/><path d="M23.576 39.693c-4.194-6.547-8.696-12.992-13.299-19.233l-.205.307c4.604 6.138 9.003 12.481 13.095 19.028h.409"/><path d="M24.292 39.488a329.76 329.76 0 0 0-13.811-19.335l-.205.307c5.422 6.956 10.128 13.709 13.708 19.13l.307-.102z"/><path d="M24.701 39.284h.409l-.205-.307c-4.604-6.547-9.309-12.89-14.322-19.13l-.102.307c4.91 6.24 9.719 12.685 14.322 19.13h-.102zm.818-.307h.307l-.307-.614c-4.91-6.343-9.616-12.788-14.629-18.721l-.205.205c5.115 6.241 10.026 12.686 14.834 19.131z"/><path d="M26.543 38.466C21.53 32.013 16.38 25.669 11.095 19.438l-.205.205 15.345 19.13c.205 0 .307-.102.307-.205"/></g><path d="M27.259 38.056c-5.177-6.432-10.464-12.776-15.857-19.028l-.205.307c5.422 6.138 10.742 12.481 15.959 18.926l.205-.205h-.102zm.819-.511L11.504 18.824l-.205.205c6.138 6.752 11.662 13.299 16.368 18.721.102 0 .205 0 .307-.205h.102zm.614-.512L11.709 18.619l-.205.205 16.88 18.414.307-.205zm.614-.511l-17.391-18.21-.205.205L29.1 36.726s0-.205.205-.205zm.511-.614l-17.596-17.8-.307.205 17.698 17.801.205-.205zm.614-.716c-6.138-5.729-12.072-11.56-18.005-17.391l-.205.205 18.005 17.391.205-.205zm.409-.614L12.732 17.596l-.307.205 18.414 16.982.102-.205h-.102zm.614-.716L12.936 17.391l-.205.205c6.036 5.627 12.276 11.151 18.414 16.471l.205-.205h.102zm.307-.819c-6.343-5.115-12.481-10.435-18.517-15.857l-.307.205c6.138 5.422 12.276 10.742 18.619 15.959l.205-.307z"/><g class="B"><path d="M31.862 32.634l.205-.307-.409-.409c-6.138-4.808-12.276-9.821-18.21-14.936l-.205.205c6.138 5.32 12.276 10.435 18.721 15.345"/><path d="M32.272 31.816l.102-.307-.205-.102c-6.24-4.706-12.378-9.616-18.414-14.629l-.307.205c6.138 5.115 12.276 9.923 18.517 14.629l.307.205z"/><path d="M32.578 30.69c-5.217-3.785-11.765-8.593-18.517-14.118l-.307.205c6.138 4.91 12.276 9.719 18.824 14.322v-.409z"/><path d="M32.886 29.872c-6.445-4.297-12.685-8.798-18.619-13.504l-.307.205c6.138 4.808 12.276 9.309 18.721 13.606v-.307"/><path d="M32.886 29.054c-6.138-4.092-12.276-8.389-18.21-12.89l-.307.205a271.11 271.11 0 0 0 18.517 12.992v-.307z"/><path d="M33.09 28.235c-6.138-3.887-12.276-7.877-18.107-12.276l-.307.205c5.95 4.399 12.094 8.53 18.414 12.379v-.307z"/><path d="M33.09 27.724v-.409a227.43 227.43 0 0 1-17.698-11.458l-.409.102c5.627 4.092 11.662 7.98 18.107 11.765z"/></g><path d="M33.09 26.906v-.409a211.74 211.74 0 0 1-17.391-10.844l-.307.205c5.422 3.785 11.356 7.468 17.698 11.049z"/><path d="M32.988 26.087v-.512c-5.831-3.069-11.458-6.547-16.88-10.23l-.409.205c5.422 3.581 11.253 7.161 17.391 10.435" class="B"/><path d="M32.886 25.166v-.409c-5.729-2.865-11.253-6.036-16.368-9.412l-.409.102a186.18 186.18 0 0 0 16.778 9.719z"/><g class="B"><path d="M32.681 23.939c-5.422-2.66-10.639-5.524-15.754-8.798l-.409.205c5.013 3.069 10.435 6.138 16.266 9.003l-.102-.409z"/><path d="M32.374 23.12c-5.115-2.455-10.23-5.115-15.038-8.082l-.409.102c4.808 3.069 10.026 5.831 15.55 8.389v-.409"/><path d="M32.067 22.302c-4.91-2.251-9.616-4.706-14.322-7.366l-.409.102c4.808 2.864 9.821 5.422 14.936 7.673l-.205-.409z"/><path d="M31.657 21.483c-4.501-2.046-9.002-4.297-13.299-6.65h-.512c4.501 2.66 9.207 5.013 14.015 7.059l-.205-.512"/><path d="M31.248 20.563c-4.194-1.739-8.286-3.683-12.276-5.831h-.614c4.297 2.353 8.696 4.501 13.095 6.343l-.205-.512z"/><path d="M30.635 19.744c-3.785-1.534-7.468-3.274-11.151-5.115h-.614c3.99 2.046 7.98 3.99 12.174 5.627l-.409-.512z"/><path d="M30.021 18.824c-3.376-1.228-6.547-2.66-9.719-4.297h-.716c3.478 1.841 7.161 3.478 10.844 4.91l-.409-.614z"/><path d="M29.408 18.312l-.307-.307-7.98-3.478h-.818l9.207 3.785"/></g><path d="M27.975 16.982l-5.729-2.353h-1.023l7.57 3.069-.818-.716zm-2.251-1.33l-1.023-.409c-.716-.307-1.432-.409-2.251-.511l5.32 2.046c-.716-.512-1.33-.818-2.046-1.125z"/></g><g class="C"><path d="M32.477 8.696l-.409-1.023-1.023-2.046c.512 1.841 1.228 3.581 1.944 5.422l-.511-2.353zm.511 2.455l-2.353-5.933-.614-.818 3.069 7.877-.102-1.125z"/><g class="B"><path d="M33.09 12.276l-3.376-8.184-.512-.614c1.125 3.274 2.455 6.547 3.887 9.719v-.921z"/><path d="M33.09 13.299a146.32 146.32 0 0 1-4.297-10.23l-.512-.409c1.33 3.785 2.967 7.468 4.604 11.253v-.818"/><path d="M32.987 13.913c-1.739-3.683-3.478-7.57-4.911-11.458-.168-.106-.338-.209-.511-.307 1.637 4.194 3.376 8.389 5.422 12.481v-.716z"/><path d="M32.885 14.629c-2.046-4.092-3.887-8.389-5.627-12.685l-.512-.307c1.841 4.604 3.887 9.207 6.138 13.504v-.512z"/><path d="M32.885 15.243c-2.353-4.501-4.501-9.207-6.445-13.811l-.512-.205c2.046 5.115 4.399 9.923 6.752 14.527l.205-.511z"/><path d="M32.681 15.754c-2.558-4.808-4.911-9.719-7.161-14.731l-.307-.205c2.148 5.32 4.604 10.435 7.366 15.345l.102-.409z"/><path d="M32.579 16.266c-2.864-5.115-5.422-10.23-7.775-15.55l-.409-.102c2.418 5.488 5.116 10.849 8.082 16.061l.102-.409z"/><path d="M32.476 16.675C29.407 11.458 26.543 6.036 23.985.409h-.409c2.762 5.831 5.627 11.458 8.798 16.675v-.409"/><path d="M23.167.307l-.409-.102c2.967 6.138 6.138 11.969 9.412 17.391l.205-.512A195.4 195.4 0 0 1 23.167.307z"/><path d="M22.349.102h-.409c3.171 6.24 6.547 12.276 10.026 17.801l.205-.409C28.589 11.867 25.315 6.036 22.349.102z"/><path d="M21.53 0h-.409c3.376 6.445 6.957 12.583 10.742 18.21l.205-.307C28.078 12.072 24.702 6.138 21.428 0"/></g><path d="M20.61 0h-.307c3.581 6.65 7.468 12.89 11.356 18.619l.205-.307C27.464 11.662 23.679 5.32 20.61 0z"/><path d="M19.791 0h-.205c3.683 6.547 7.775 12.89 12.072 18.926l.102-.307C27.668 12.583 23.576 6.343 19.893 0"/><g class="B"><path d="M18.665.205a280.3 280.3 0 0 0 12.686 19.028l.205-.307C27.054 12.788 22.962 6.65 18.972.102h-.307"/><path d="M17.847.307c4.194 6.65 8.593 12.992 13.299 19.233l.205-.307C26.747 13.095 22.348 6.752 18.256.307h-.409z"/><path d="M17.028.614a345.75 345.75 0 0 0 13.913 19.233l.205-.205C26.338 13.299 21.632 6.956 17.438.511h-.409"/><path d="M16.619.716l-.307.102.205.307c3.785 5.422 8.593 12.072 14.322 19.028l.102-.307C26.031 13.708 21.325 7.366 16.722.921l-.102-.205z"/><path d="M15.801 1.023l-.307.102.409.614c4.706 6.343 9.616 12.583 14.629 18.721l.205-.307c-5.013-6.138-10.128-12.583-14.936-19.13z"/><path d="M14.778 1.535l15.55 19.233.205-.307A569.2 569.2 0 0 1 15.188 1.432l-.409.102z"/></g><path d="M14.062 2.046l16.061 18.926.205-.205A727.58 727.58 0 0 1 14.471 1.842l-.307.102-.102.102zm-.511.409l16.368 18.824.307-.307L13.857 2.251c-.205 0-.307.102-.307.205zm-.716.512l16.982 18.517.205-.205-16.88-18.414-.307.102zm-.614.614l17.391 18.21c0-.102 0-.205.205-.307L12.323 3.376l-.205.205h.102zm-.716.614l17.698 17.801.205-.205L11.811 3.888l-.307.307zm-.511.614L28.998 22.2l.205-.205L11.198 4.604l-.205.205zm-.511.716c6.138 5.524 12.276 11.253 18.21 16.88l.307-.205L10.686 5.218l-.205.307zm-.409.716l18.414 16.368.205-.102C22.655 16.88 16.517 11.253 10.379 5.934l-.205.307"/><path d="M9.663 6.957c6.24 5.115 12.481 10.537 18.517 15.959l.307-.205C22.349 17.187 16.21 11.867 9.868 6.65l-.205.307z" class="B"/><path d="M9.458 7.468l-.102.307.409.307c5.115 4.092 11.458 9.207 18.107 15.038l.307-.205C22.077 17.601 15.834 12.45 9.458 7.468zm-.307.716l-.102.409.205.102c6.24 4.706 12.378 9.514 18.414 14.629l.205-.205C21.939 18.005 15.698 13.095 9.458 8.389l-.307-.205z"/><g class="B"><path d="M8.742 9.309c5.32 3.785 11.867 8.593 18.619 14.22l.307-.205C21.53 18.312 15.29 13.606 8.844 9.002v.307m-.307.921c6.307 4.267 12.449 8.771 18.414 13.504l.409-.205c-6.138-4.808-12.276-9.412-18.721-13.708v.409"/><path d="M8.436 11.049c6.24 4.092 12.276 8.287 18.312 12.788l.307-.102A320.13 320.13 0 0 0 8.538 10.639v.409"/><path d="M8.333 11.867c6.138 3.785 12.276 7.877 18.107 12.276l.307-.307A221.43 221.43 0 0 0 8.333 11.56v.307z"/></g></g><mask id="A" mask-type="alpha" maskUnits="userSpaceOnUse" x="8" y="12" width="19" height="13"><path d="M8.333 12.379H26.44v11.867H8.333V12.379z" fill="#fff"/></mask><g mask="url(#A)" class="B C"><path d="M8.333 12.379v.409c6.138 3.478 11.969 7.366 17.698 11.458l.409-.102c-5.627-4.092-11.662-7.98-18.107-11.867"/></g><g class="C"><path d="M8.333 13.197v.409c5.967 3.298 11.77 6.883 17.391 10.742l.307-.102c-5.422-3.887-11.458-7.57-17.698-11.049z"/><path d="M8.333 14.015l.102.409c5.831 3.069 11.458 6.445 16.88 10.23l.409-.205c-5.422-3.683-11.253-7.161-17.391-10.435z"/><path d="M8.537 14.834v.409c5.627 2.864 11.151 6.138 16.368 9.514l.409-.205a200.74 200.74 0 0 0-16.777-9.719z" class="B"/><path d="M8.742 16.062c4.91 2.455 10.23 5.32 15.754 8.798l.409-.102c-5.115-3.274-10.435-6.343-16.266-9.105l.102.409z"/><g class="B"><path d="M9.049 16.982c5.115 2.353 10.23 5.115 15.038 7.98h.409c-4.808-3.069-10.026-5.831-15.652-8.491l.205.511z"/><path d="M9.356 17.801c4.808 2.251 9.616 4.604 14.322 7.366l.409-.205a157.17 157.17 0 0 0-14.936-7.57l.205.409z"/><path d="M9.765 18.619c4.501 2.046 9.003 4.194 13.299 6.65l.512-.102c-4.604-2.558-9.207-4.91-14.118-6.956l.307.409z"/><path d="M10.174 19.437c3.99 1.739 8.184 3.683 12.276 5.933l.614-.102c-4.297-2.353-8.696-4.399-13.197-6.24l.307.409z"/><path d="M10.788 20.358a142.18 142.18 0 0 1 11.049 5.115l.614-.102c-3.888-2.046-7.98-3.887-12.072-5.524l.409.512z"/><path d="M11.402 21.176a113.09 113.09 0 0 1 9.719 4.297h.716c-3.581-1.841-7.161-3.376-10.844-4.808l.409.512z"/><path d="M11.913 21.79l.307.307 8.082 3.376h.818l-9.207-3.683z"/></g><path d="M13.448 23.018l5.729 2.353 1.023.102-7.673-3.069.921.614zm2.353 1.432l1.023.409 2.148.511-5.115-2.046c.511.409 1.228.818 1.944 1.023"/></g></g><defs><clipPath id="B"><path fill="#fff" d="M0 0h40v40H0z"/></clipPath></defs></svg>