<svg xmlns="http://www.w3.org/2000/svg" width="40" height="41" fill="none"  xmlns:v="https://vecta.io/nano"><style><![CDATA[.B{fill:#16c784}.C{fill:#ea3935}]]></style><rect y=".5" width="40" height="40" rx="8" fill="#141a21"/><path d="M24.754 20.367l-.275-.096c-.084-.032-.18-.053-.285-.075.021-.021.042-.043.053-.043.063-.032.127-.075.18-.106l-.233.011h-8.948v4.683c0 .426-.232.681-.644.692h-1.12-.159l-.243 1.48-.106.543v.085l1.046.011 2.335.011h.158V30.5h1.754v-2.916h1.405v2.895h1.764c0-.032-.011-.064-.011-.096v-2.725c0-.032 0-.064.011-.106l.644-.053c.75-.075 1.5-.192 2.218-.458.771-.287 1.426-.724 1.859-1.437.338-.543.486-1.15.539-1.778 0-.043.021-.096.021-.138v-.745l-.095-.543c-.232-1.043-.898-1.682-1.87-2.033zm-2.303 4.47c-.475.287-.993.415-1.532.5-.845.128-1.69.117-2.546.096-.011 0-.021-.011-.053-.011v-3.896h1.331c.718.011 1.437.053 2.123.266.391.117.75.287 1.035.596.687.734.518 1.916-.359 2.448z" fill="#fff"/><g class="B"><path d="M13.683 13.746v.657 1.067h1.046v-1.724h-1.046z"/><path d="M14.095 13.214v1.426 2.299h.249v-3.725h-.249z"/></g><path d="M15.679 11.724v1.99 3.225h.249v-5.216h-.249zm1.669-1.224v2.48 4.013h.249V10.5h-.249z" class="C"/><path d="M19.007 13.108v1.671 2.693h.249v-4.364h-.249z" class="B"/><path d="M20.676 10.5v2.48 4.013h.249V10.5h-.249z" class="C"/><path d="M22.356 12.576v1.682 2.735h.249v-4.417h-.249z" class="B"/><path d="M24.025 13.214v1.448 2.331h.249v-3.779h-.249z" class="C"/><path d="M25.726 15.45v1.543 2.501h.249V15.45h-.249zm-8.525-2.555v1.543 2.501h.327v-4.045h-.327z" class="B"/><path d="M15.235 13.81h1.046v6.237h-1.046V13.81zm1.68-2.916h1.046v9.154h-1.046v-9.154z" class="C"/><path d="M18.648 13.768h.93v2.448h-.93v-2.448z" class="B"/><path d="M20.264 12.065h1.046v4.311h-1.046v-4.311z" class="C"/><path d="M21.933 13.789h1.046v6.046h-1.046v-6.046z" class="B"/><path d="M23.603 14.641h1.046v5.216h-1.046v-5.216z" class="C"/><path d="M25.293 16.216h1.046v3.076h-1.046v-3.076z" class="B"/><path d="M29.445 19.814H10.556v.525h18.889v-.525z" fill="#fff"/></svg>