<svg xmlns="http://www.w3.org/2000/svg" width="40" height="41" fill="none"  xmlns:v="https://vecta.io/nano"><g fill="#141a21"><rect y=".5" width="40" height="40" rx="8"/><rect y=".5" width="40" height="40" rx="8"/></g><path opacity=".05" d="M22.683 8.651l-2.677 8.946c-.281.938.252 1.926 1.191 2.207l4.833 1.446c.884.265 1.152 1.386.484 2.022L15.038 34.199l2.677-8.946c.281-.938-.252-1.927-1.19-2.207l-4.833-1.446c-.884-.265-1.152-1.386-.484-2.022L22.683 8.651z" fill="#fff"/><path d="M24.246 7.167l-2.677 8.946c-.281.938.252 1.927 1.191 2.207l4.833 1.446c.884.265 1.152 1.386.484 2.022L16.6 32.714l2.677-8.946c.281-.938-.252-1.927-1.19-2.207l-4.833-1.446c-.884-.264-1.152-1.386-.484-2.022L24.246 7.167z" fill="#3398ff"/></svg>