<svg width="13" height="15" viewBox="0 0 13 15" fill="none" xmlns="http://www.w3.org/2000/svg">
<path d="M8.12109 7.42188C8.12109 6.98438 7.79297 6.62891 7.41016 6.62891C7 6.62891 6.67188 6.98438 6.67188 7.42188C6.67188 7.83203 7 8.1875 7.41016 8.1875C7.79297 8.1875 8.12109 7.83203 8.12109 7.42188ZM4.83984 6.62891C4.45703 6.62891 4.12891 6.98438 4.12891 7.42188C4.12891 7.83203 4.45703 8.1875 4.83984 8.1875C5.25 8.1875 5.55078 7.83203 5.55078 7.42188C5.57812 6.98438 5.25 6.62891 4.83984 6.62891ZM12.25 2.19922C12.25 1.40625 11.5938 0.75 10.8008 0.75H1.42188C0.628906 0.75 0 1.40625 0 2.19922V11.6602C0 12.4805 0.628906 13.1094 1.42188 13.1094H9.35156L8.99609 11.8242C11.0469 13.7109 10.4727 13.2188 12.25 14.75V2.19922ZM10.2539 8.84375C10.2539 8.84375 9.65234 9.85547 8.09375 9.91016C8.09375 9.91016 7.84766 9.60938 7.62891 9.33594C8.55859 9.08984 8.91406 8.51562 8.91406 8.51562C8.61328 8.70703 8.33984 8.81641 8.09375 8.92578C6.58984 9.55469 4.92188 9.33594 3.71875 8.67969C3.71875 8.65234 3.55469 8.57031 3.44531 8.48828C3.44531 8.48828 3.77344 9.0625 4.67578 9.33594C4.45703 9.58203 4.21094 9.91016 4.21094 9.91016C2.65234 9.85547 2.07812 8.84375 2.07812 8.84375C2.07812 6.57422 3.0625 4.76953 3.0625 4.76953C4.07422 4.00391 5.03125 4.03125 5.03125 4.03125L5.11328 4.11328C3.85547 4.46875 3.28125 5.01562 3.28125 5.01562C3.28125 5.01562 3.41797 4.93359 3.69141 4.82422C5.30469 4.11328 7.24609 4.11328 8.91406 5.01562C8.91406 5.01562 8.36719 4.49609 7.16406 4.14062L7.27344 4.03125C7.27344 4.03125 8.23047 4.00391 9.24219 4.76953C9.24219 4.76953 10.2539 6.57422 10.2539 8.84375Z" fill="white" fill-opacity="0.8"/>
</svg>
