<svg xmlns="http://www.w3.org/2000/svg" width="8" height="5" fill="none"  xmlns:v="https://vecta.io/nano"><path fill-rule="evenodd" d="M.292.293A1.01 1.01 0 0 0 0 1.002a1.01 1.01 0 0 0 .292.71l2.939 2.965a1.11 1.11 0 0 0 .779.322c.279 0 .556-.107.769-.322l2.93-2.955a1.01 1.01 0 0 0 0-1.419C7.617.21 7.507.136 7.387.085s-.25-.077-.381-.077-.26.026-.381.077-.23.125-.322.218L4.005 2.62 1.698.293A.99.99 0 0 0 .995 0a.99.99 0 0 0-.381.076.99.99 0 0 0-.322.217z" fill="#0d172a" fill-opacity=".4"/></svg>