<svg xmlns="http://www.w3.org/2000/svg" xmlns:xlink="http://www.w3.org/1999/xlink" width="65" height="64" fill="none" xmlns:v="https://vecta.io/nano"><style><![CDATA[.B{stroke-linejoin:round}.C{stroke:#0d172a}.D{stroke-linecap:round}]]></style><g fill="#f0b90b"><path d="M18.124 18.452c1.756 0 3.179-1.444 3.179-3.226S19.879 12 18.124 12s-3.179 1.444-3.179 3.226 1.423 3.226 3.179 3.226z"/><path d="M40.556 52c8.714 0 15.778-7.167 15.778-16.008S49.27 19.985 40.556 19.985s-15.777 7.167-15.777 16.008S31.842 52 40.556 52z" style="mix-blend-mode:multiply" opacity=".4"/></g><use xlink:href="#B" fill="#fff"/><use xlink:href="#B" class="B C D"/><path d="M35.444 19.978h6.39l-2.128 7.665h6.088L40.82 40.617c-.038.069-.098.125-.169.158s-.151.043-.228.027a.37.37 0 0 1-.2-.114.38.38 0 0 1-.096-.211l.334-8.534h-4.445c-.29 0-.576-.064-.84-.187a2 2 0 0 1-.684-.528c-.188-.224-.325-.487-.402-.771s-.092-.581-.045-.871l1.045-6.503" fill="#f0b90b" style="mix-blend-mode:multiply" opacity=".4"/><use xlink:href="#C" fill="#fff"/><g class="C B"><g class="D"><use xlink:href="#C"/><path d="M8.333 38.241l2.506.83m.586-7.627l1.908 1.15m2.984-7.787l1.807 1.878m5.974-6.164l.674 2.044m7.618-3.506v2.638"/></g><path d="M29.991 44.763l3.242-14.973 1.624 14.973h-4.867z" fill="#fff"/></g><path d="M21.832 39.071a11.91 11.91 0 0 0-.365 1.469l.365-1.469z" fill="#fff"/><path d="M21.832 39.071a11.91 11.91 0 0 0-.365 1.469" class="B C D"/><use xlink:href="#D" fill="#fff"/><g class="B C D"><use xlink:href="#D"/><path d="M39.92 48.167h7.429"/></g><defs ><path id="B" d="M34.839 25.51l-1.964-.102a19.07 19.07 0 0 0-13.57 5.715c-3.598 3.654-5.619 8.608-5.619 13.774H52.09c.006-4.084-1.259-8.065-3.614-11.376"/><path id="C" d="M38.207 16.791h6.869l-2.128 7.665h6.113l-5.767 15.056.422-10.757h-6.812l1.442-8.866"/><path id="D" d="M28.216 32.805c-.598.185-1.174.436-1.719.747a10.49 10.49 0 0 0-1.568 1.054 9.69 9.69 0 0 0-2.027 2.236"/></defs></svg>