<svg xmlns="http://www.w3.org/2000/svg" xmlns:xlink="http://www.w3.org/1999/xlink" width="65" height="64" fill="none" xmlns:v="https://vecta.io/nano"><style><![CDATA[.B{fill:#fff}.C{stroke:#0d172a}.D{stroke-linejoin:round}.E{stroke-linecap:round}.F{fill:#43b581}]]></style><g class="F"><path d="M24.283 44.125c8.625 0 15.616-6.744 15.616-15.062S32.908 14 24.283 14 8.667 20.744 8.667 29.062s6.992 15.062 15.616 15.062z" style="mix-blend-mode:multiply" opacity=".4"/><path d="M33.355 50c1.68 0 3.042-1.314 3.042-2.934s-1.362-2.934-3.042-2.934-3.042 1.314-3.042 2.935S31.675 50 33.355 50z"/></g><g class="B C D"><path d="M21.46 23.887H9.044v5.175H21.46v-5.175z"/><path d="M21.2 29.062H8.783v5.175H21.2v-5.175z"/><path d="M21.2 34.244H8.783v5.175H21.2v-5.175z"/><path d="M38.303 27.146H13.785v12.273h24.517V27.146zm-.48-8.434H25.407v5.175h12.416v-5.175z"/><path d="M38.823 23.887H26.407v5.175h12.416v-5.175z"/><path d="M38.296 29.062H25.88v5.175h12.416v-5.175z"/><path d="M38.296 34.244H25.88v5.175h12.416v-5.175z"/></g><path d="M34.383 18.23h14.034c-.081.775.006 1.557.258 2.297a5.53 5.53 0 0 0 1.202 1.999 5.77 5.77 0 0 0 1.939 1.356c.738.316 1.536.48 2.343.481-.685 6.926-3.364 17.706-12.752 21.447-9.669-4.217-12.204-14.791-12.779-21.552.799.001 1.589-.158 2.32-.467a5.77 5.77 0 0 0 1.93-1.328 5.53 5.53 0 0 0 1.214-1.964 5.38 5.38 0 0 0 .292-2.269z" style="mix-blend-mode:multiply" opacity=".4" class="F"/><path d="M13.785 33.279h7.325-7.325z" class="B"/><path d="M13.785 33.279h7.325" class="C D E"/><path d="M18.829 29.862h6.578-6.578z" class="B"/><path d="M18.829 29.862h6.578" class="C D E"/><path d="M13.785 29.862h2.433-2.433z" class="B"/><path d="M13.785 29.862h2.433" class="C D E"/><path d="M14.149 36.412h9.155-9.155z" class="B"/><g class="C D"><path d="M14.149 36.412h9.155" class="E"/><path d="M36.857 15.837h14.068a5.39 5.39 0 0 0 .258 2.298c.251.74.661 1.422 1.202 2a5.78 5.78 0 0 0 1.939 1.358 5.96 5.96 0 0 0 2.344.483c-.685 6.92-3.364 17.706-12.752 21.447-9.73-4.217-12.238-14.791-12.814-21.552a5.96 5.96 0 0 0 2.321-.47 5.78 5.78 0 0 0 1.93-1.33c.541-.567.954-1.236 1.213-1.965s.359-1.502.292-2.27z" class="B"/></g><path d="M41.462 24.198a5.06 5.06 0 0 1 2.85-.872l-2.85.872z" class="B"/><path d="M41.462 24.198a5.06 5.06 0 0 1 2.85-.872" class="C D E"/><use xlink:href="#B" class="B"/><use xlink:href="#B" class="C D E"/><path d="M39.296 26.505l3.885 2.188 6.112-5.889" class="B"/><path d="M39.296 26.505l3.885 2.188 6.112-5.889" class="C D E"/><path d="M12.312 26.478h1.158v12.941h-1.85V27.146a.64.64 0 0 1 .051-.257.66.66 0 0 1 .15-.217.7.7 0 0 1 .225-.145.69.69 0 0 1 .266-.049zm13.328 0h-2.803v12.941h2.803V26.478z" style="mix-blend-mode:multiply" opacity=".4" class="F"/><path d="M12.97 42.756h6.146" class="C D E"/><defs ><path id="B" d="M49.294 28.13a4.69 4.69 0 0 1-1.059 2.965c-.687.846-1.649 1.445-2.731 1.701s-2.222.154-3.237-.289-1.846-1.202-2.361-2.156"/></defs></svg>