<svg xmlns="http://www.w3.org/2000/svg" width="64" height="64" fill="none"  xmlns:v="https://vecta.io/nano"><style><![CDATA[.B{stroke:#0d172a}.C{stroke-linejoin:round}.D{stroke-linecap:round}.E{fill:#ef3e36}]]></style><g class="E"><path d="M22.041 50c7.755 0 14.041-6.061 14.041-13.537s-6.286-13.537-14.041-13.537S8 28.986 8 36.463 14.286 50 22.041 50z" style="mix-blend-mode:multiply" opacity=".4"/><path d="M43.368 16.258H32.096c-.437 0-.791.341-.791.763v10.373c0 .421.354.763.791.763h11.272c.437 0 .791-.341.791-.763V17.021c0-.421-.354-.763-.791-.763z" style="mix-blend-mode:multiply" opacity=".4"/></g><g fill="#fff"><path d="M33.69 31.321H14.199v10.945H33.69V31.321zm14.394 0H36.731v10.945h11.353V31.321zM46.075 14H33.907v11.732h12.168V14z" class="B C"/><path d="M18.24 36.129l2.138 2.288 3.671-3.247 3.133 2.8 2.466-1.543"/></g><g class="B C"><path d="M18.24 36.129l2.138 2.288 3.671-3.247 3.133 2.8 2.466-1.543" class="D"/><path d="M42.404 39.186c1.372 0 2.484-1.072 2.484-2.395s-1.112-2.395-2.484-2.395-2.484 1.072-2.484 2.395 1.112 2.395 2.484 2.395z" fill="#fff"/></g><path d="M37.132 17.229v5.422h5.791" fill="#fff"/><path d="M37.132 17.229v5.422h5.791" class="B C D"/><path d="M37.763 22.127s3.955-2.085 4.944-4.898l-4.944 4.898z" fill="#fff"/><path d="M37.763 22.127s3.955-2.085 4.944-4.898" class="B C D"/><path d="M24.173 15.692H10.528c-.437 0-.791.341-.791.763v16.791c0 .421.354.763.791.763h13.645c.437 0 .791-.341.791-.763v-16.79c0-.421-.354-.763-.791-.763z" style="mix-blend-mode:multiply" opacity=".4" class="E"/><g class="B C"><path d="M26.738 14.037h-14.43v17.845h14.43V14.037z" fill="#fff"/><path d="M16.158 21.079h6.73m-6.73-3.021h6.73m-6.73 9.163h6.73m-6.73-3.116h5.21m9.937 21.2h6.458" class="D"/></g><path d="M53.12 29.998c1.59 0 2.88-1.243 2.88-2.777s-1.289-2.777-2.88-2.777-2.88 1.243-2.88 2.777 1.289 2.777 2.88 2.777z" class="E"/></svg>