<svg xmlns="http://www.w3.org/2000/svg" width="24" height="25" fill="#fff" xmlns:v="https://vecta.io/nano"><path d="M19.005 19.5h0zM5 19.506V19.5v.006zm14-.006v-6h2v6.002c0 .262-.051.522-.151.764s-.247.463-.432.648-.405.333-.647.433-.502.152-.764.152H4.995c-.529 0-1.036-.21-1.41-.584s-.584-.881-.585-1.41V5.494C3 4.393 3.896 3.5 4.997 3.5H11v2H5v14h14zm-14 .006V19.5v.006zM11 5.5H5v14h14v-6h2v6.002c0 .262-.051.522-.151.764s-.247.463-.432.648-.405.333-.647.433-.502.152-.764.152H4.995c-.529 0-1.036-.21-1.41-.584s-.584-.881-.585-1.41V5.494C3 4.393 3.896 3.5 4.997 3.5H11v2zm8 0v3a1 1 0 0 0 1 1 1 1 0 0 0 1-1v-4a1 1 0 0 0-1-1h-4a1 1 0 0 0-1 1 1 1 0 0 0 1 1h3z"/><path d="M12.707 13.207l8-8a1 1 0 0 0 .305-.711 1 1 0 0 0-.293-.716 1 1 0 0 0-.716-.293 1 1 0 0 0-.711.305l-8 8a1 1 0 0 0 .012 1.402 1 1 0 0 0 1.402.012z"/></svg>