<svg xmlns="http://www.w3.org/2000/svg" width="40" height="41" fill="#42acdb"  fill-rule="evenodd" xmlns:v="https://vecta.io/nano"><path d="M16.682 14.093l-1.105 4.315L8 19.393l8.682-5.299zM18.733 31.5l1.883-7.838-2.442-1.012.559 8.849z"/><path d="M15.577 18.404l-1.988 4.101-5.567-3.099 7.554-1.002z"/><path d="M18.734 31.5l-.559-8.849-4.607-.159 5.167 9.009z"/><path d="M15.577 18.404l2.62 4.242-4.607-.155 1.987-4.087z"/><path d="M16.682 14.093l6.272.788-7.377 3.527 1.105-4.315zm13.13-1.964l-3.943 4.593.277-4.247 3.666-.346z"/><path d="M32 9.5l-2.188 2.629 1.71.21L32 9.5z"/><path d="M27.689 14.513l3.834-2.178-1.71-.21-2.124 2.388zm-7.073 9.149l.187-5.272-2.629 4.261 2.442 1.012z"/><path d="M20.803 18.39l-2.629 4.261-2.597-4.242 5.226-.018z"/><path d="M22.954 14.881l-2.151 3.509-5.226.018 7.377-3.527z"/><path d="M20.803 18.39l-.187 5.272 4.812 4.93-4.625-10.202z"/><path d="M27.943 25.836l-2.542-6.311.027 9.072 2.515-2.761z"/><path d="M25.869 16.722l-.468 2.802-4.598-1.135 5.066-1.668z"/><path d="M28.198 20.523l-2.797-.998.455-2.798 2.342 3.796zm1.023 5.14l-3.047-4.894h1.742l1.305 4.894z"/><path d="M23.527 13.838l2.342 2.884.277-4.247-2.62 1.362zm1.874 5.687l-4.598-1.135 4.625 10.203-.027-9.068z"/><path d="M27.943 25.836l1.014.57-3.52 2.187 2.506-2.757z"/><path d="M29.221 25.604l-3.82-6.079 2.542 6.316 1.278-.237zm-5.694-11.766l-2.729 4.557 5.066-1.668-2.338-2.889z"/></svg>
