<svg xmlns="http://www.w3.org/2000/svg" width="40" height="41" fill="none"  xmlns:v="https://vecta.io/nano"><rect x="8.5" y="13" width="23" height="15" rx="1.5" fill="#fff" stroke="#141617"/><rect x="12" y="16.5" width="1" height="1" rx=".5" fill="#141617"/><rect x="24" y="19.5" width="4" height="1" rx=".5" fill="#017aff"/><g fill="#141617"><rect x="12" y="22.5" width="1" height="1" rx=".5"/><rect x="21" y="16.5" width="1" height="1" rx=".5"/><rect x="21" y="19.5" width="1" height="1" rx=".5"/><rect x="24" y="16.5" width="1" height="1" rx=".5"/><rect x="15" y="19.5" width="1" height="1" rx=".5"/><rect x="27" y="16.5" width="1" height="1" rx=".5"/><rect x="12" y="19.5" width="1" height="1" rx=".5"/><rect x="27" y="22.5" width="1" height="1" rx=".5"/><rect x="18" y="16.5" width="1" height="1" rx=".5"/><rect x="18" y="19.5" width="1" height="1" rx=".5"/><rect x="15" y="16.5" width="1" height="1" rx=".5"/><rect x="15" y="22.5" width="10" height="1" rx=".5"/></g></svg>