<svg xmlns="http://www.w3.org/2000/svg" width="40" height="41" fill="none"  xmlns:v="https://vecta.io/nano"><g clip-path="url(#A)" fill-rule="evenodd"><path d="M22.515 15.886c0-3.446-1.717-6.411-3.023-7.375 0 0-.1-.055-.093.083-.111 6.656-3.581 8.461-5.499 10.89-4.412 5.606-.309 11.752 3.87 12.889 2.337.636-.546-1.125-.909-4.843-.449-4.493 5.656-7.922 5.656-11.642" fill="#535a64"/><path d="M24.808 18.151c-.014-.014-.033-.02-.052-.018s-.036.014-.046.03c-.076.837-1.011 2.629-2.195 4.273-4.015 5.581-1.728 8.27-.44 9.711.747.839 0 0 1.868-.858.147-.067 3.637-1.863 4.023-5.955.364-3.964-2.233-6.462-3.157-7.188" fill="#357ce1"/></g><defs><clipPath id="A"><path fill="#fff" transform="translate(8 8.5)" d="M0 0h24v24H0z"/></clipPath></defs></svg>
