<svg xmlns="http://www.w3.org/2000/svg" width="40" height="41" fill="none"  xmlns:v="https://vecta.io/nano"><path d="M12.5 10.5A1.5 1.5 0 0 1 14 9h16a1.5 1.5 0 0 1 1.5 1.5v20A1.5 1.5 0 0 1 30 32H14h-2.793l.561-.561a2.5 2.5 0 0 0 .732-1.768V10.5z" fill="#fff" stroke="#141617" stroke-linejoin="round"/><g fill="#141617"><rect x="16" y="13.5" width="12" height="1" rx=".5"/><rect x="16" y="16.5" width="8" height="1" rx=".5"/><rect x="16" y="19.5" width="10" height="1" rx=".5"/></g><g fill="#43b581"><rect x="16" y="26.5" width="4" height="1" rx=".5"/><rect x="26" y="26.5" width="2" height="1" rx=".5"/></g><path d="M8.5 24.5A1.5 1.5 0 0 1 10 23h2.5v7.5A1.5 1.5 0 0 1 11 32h-1a1.5 1.5 0 0 1-1.5-1.5v-6z" fill="#fff" stroke="#141617"/></svg>