<svg xmlns="http://www.w3.org/2000/svg" width="40" height="41" fill="none"  xmlns:v="https://vecta.io/nano"><path fill-rule="evenodd" d="M19.246 10.525c2.077-.135 4.194.287 6.064 1.221 2.753 1.362 4.947 3.827 5.986 6.737.458 1.283.704 2.645.704 4.007v5.065c0 .208.006.416-.045.619a1.71 1.71 0 0 1-.949 1.176c-.329.158-.709.174-1.067.118-.765-.141-1.363-.867-1.368-1.649v-4.716c.011-.445.017-.923-.223-1.317-.391-.726-1.329-1.069-2.088-.76-.642.231-1.106.884-1.111 1.57v4.784c0 .298.017.602-.073.889-.162.563-.625 1.019-1.184 1.171-.732.203-1.575-.124-1.943-.805-.251-.411-.234-.906-.229-1.368l-.006-4.75a1.73 1.73 0 0 0-1.463-1.632 1.7 1.7 0 0 0-1.43.462 1.75 1.75 0 0 0-.53 1.249v4.615c-.006.388.039.788-.106 1.154-.229.659-.888 1.142-1.586 1.126-.715.039-1.407-.456-1.636-1.131-.129-.332-.101-.692-.101-1.041v-4.778c-.006-.788-.614-1.508-1.379-1.649-.698-.152-1.469.203-1.815.833-.151.265-.229.568-.229.867v5.172c.006.501-.223 1.002-.609 1.323a1.72 1.72 0 0 1-2.128.068A1.67 1.67 0 0 1 8 27.786v-5.24a12.16 12.16 0 0 1 1.441-5.701 12.12 12.12 0 0 1 3.082-3.703 11.87 11.87 0 0 1 6.723-2.617z" fill="#5741d9"/></svg>
