<svg xmlns="http://www.w3.org/2000/svg" width="40" height="41" fill="none"  xmlns:v="https://vecta.io/nano"><g clip-path="url(#A)"><g fill-rule="evenodd" fill="#23af91"><path d="M11.065 10.477c1.14 0 2.065.915 2.065 2.042v15.87c0 1.127-.926 2.042-2.065 2.042S9 29.517 9 28.39V12.52c.004-1.127.926-2.042 2.065-2.042z"/><path d="M24.213 9.286a2.05 2.05 0 0 1-.014 2.891L12.923 23.368c-.801.796-2.093.789-2.883-.014a2.05 2.05 0 0 1 .014-2.892L21.33 9.275a2.03 2.03 0 0 1 2.883.01z"/><path d="M24.213 31.711a2.05 2.05 0 0 0-.014-2.892L12.923 17.632c-.801-.796-2.093-.789-2.883.014a2.05 2.05 0 0 0 .014 2.892L21.33 31.725c.8.799 2.093.792 2.883-.014z"/><path d="M30.404 23.122c.797.8.794 2.092-.007 2.885l-5.959 5.901a2.06 2.06 0 0 1-2.899-.007c-.797-.8-.794-2.092.007-2.885l5.959-5.901a2.06 2.06 0 0 1 2.9.007zm0-5.245c.797-.8.794-2.091-.007-2.884l-5.959-5.9a2.06 2.06 0 0 0-2.899.007c-.797.8-.794 2.091.007 2.884l5.959 5.9a2.06 2.06 0 0 0 2.9-.007z"/></g><path d="M23.008 22.612c1.141 0 2.065-.926 2.065-2.067s-.925-2.067-2.065-2.067-2.065.926-2.065 2.067.925 2.067 2.065 2.067z" fill="#23af91"/></g><defs><clipPath id="A"><path fill="#fff" transform="translate(8 8.5)" d="M0 0h24v24H0z"/></clipPath></defs></svg>
