<svg xmlns="http://www.w3.org/2000/svg" width="65" height="64" fill="none"  xmlns:v="https://vecta.io/nano"><style><![CDATA[.B{stroke:#0d172a}.C{stroke-linejoin:round}.D{stroke-linecap:round}]]></style><g fill="#6f1afa"><path d="M21.604 40.114c6.929 0 12.547-5.398 12.547-12.057S28.533 16 21.604 16 9.057 21.398 9.057 28.057s5.617 12.057 12.547 12.057z" style="mix-blend-mode:multiply" opacity=".4"/><path d="M33.096 46.302c1.421 0 2.573-1.107 2.573-2.473s-1.152-2.473-2.573-2.473-2.573 1.107-2.573 2.473 1.152 2.473 2.573 2.473z"/></g><path d="M23.52 38.825s-.977 2.531-5.009 2.531-5.075-2.531-5.075-2.531L10.073 48h16.512l-3.065-9.175zm32.813-4.522H26.347v3.635h29.986v-3.635z" fill="#fff" class="B C"/><path d="M56.035 33.438H26.11v2.68h29.926v-2.68z" fill="#6f1afa" style="mix-blend-mode:multiply" opacity=".4"/><g fill="#fff"><path d="M56.333 16.239H26.347v18.064h29.986V16.239z" class="B C"/><path d="M32.659 19.672v11.319h20.168"/></g><g class="B C D"><path d="M32.659 19.672v11.319h20.168"/><path d="M50.982 22.31l1.193-.982"/></g><path d="M32.781 25.271l3.264 2.786 4.766-3.927 4.34 2.972 3.783-3.105" fill="#fff"/><g class="B C"><path d="M32.781 25.271l3.264 2.786 4.766-3.927 4.34 2.972 3.783-3.105" class="D"/><g fill="#fff"><path d="M18.494 39.323c2.531 0 4.584-1.972 4.584-4.405s-2.052-4.405-4.584-4.405-4.583 1.972-4.583 4.405 2.052 4.405 4.583 4.405z"/><path d="M24.127 32.356H12.856l.845-5.169h9.52l.906 5.169z"/><path d="M28.617 25.966l-10.122 3.593-10.128-3.593 10.559-3.306 9.692 3.306z"/></g><path d="M9.703 29.044v2.945" class="D"/><path d="M9.703 37.307c.756 0 1.37-.589 1.37-1.316s-.613-1.316-1.37-1.316-1.37.589-1.37 1.316.613 1.316 1.37 1.316z" fill="#fff"/><path d="M53.119 40.825h-5.235" class="D"/></g></svg>