<svg width="14" height="14" viewBox="0 0 14 14" fill="none" xmlns="http://www.w3.org/2000/svg">
<path fill-rule="evenodd" clip-rule="evenodd" d="M6.793 0.792799C6.70005 0.885586 6.62632 0.99579 6.57601 1.11711C6.5257 1.23842 6.4998 1.36846 6.4998 1.4998C6.4998 1.63113 6.5257 1.76118 6.57601 1.88249C6.62632 2.00381 6.70005 2.11401 6.793 2.2068L10.586 5.9998H1C0.734784 5.9998 0.48043 6.10516 0.292893 6.29269C0.105357 6.48023 0 6.73458 0 6.9998C0 7.26501 0.105357 7.51937 0.292893 7.7069C0.48043 7.89444 0.734784 7.9998 1 7.9998H10.586L6.793 11.7928C6.70005 11.8856 6.62632 11.9958 6.57601 12.1171C6.5257 12.2384 6.4998 12.3685 6.4998 12.4998C6.4998 12.6311 6.5257 12.7612 6.57601 12.8825C6.62632 13.0038 6.70005 13.114 6.793 13.2068C7.183 13.5968 7.817 13.5968 8.208 13.2068L13.707 7.7068C13.8881 7.52639 13.993 7.28332 14 7.0278V6.9708C13.9928 6.7156 13.888 6.47289 13.707 6.2928L8.208 0.792799C8.11513 0.699822 8.00484 0.626063 7.88344 0.575738C7.76204 0.525414 7.63192 0.499512 7.5005 0.499512C7.36908 0.499512 7.23896 0.525414 7.11756 0.575738C6.99616 0.626063 6.88587 0.699822 6.793 0.792799Z" fill="#017AFF"/>
</svg>
