<svg xmlns="http://www.w3.org/2000/svg" width="129" height="32" fill="none"  xmlns:v="https://vecta.io/nano"><path d="M31.998 15.878v11.145c-.027 1.306-.564 2.549-1.496 3.463s-2.185 1.426-3.49 1.426-2.558-.512-3.49-1.426-1.469-2.157-1.496-3.463V13.845c0-2.759 9.971 2.033 9.971 2.033z" fill="#017aff"/><path opacity=".01" d="M31.998 16.564v4.663c-2.119 4.826-6.211 5.392-6.211 5.392l3.716-9.145c.936-.092 1.72-.717 2.495-.91z" fill="#000"/><path d="M32 15.994c.002 2.405-.538 4.779-1.58 6.945s-2.559 4.07-4.439 5.568c-.572.46-1.175.88-1.806 1.255l-.232.138-.443.243.238-.132c-2.326 1.201-5.356 1.046-7.979-.408-3.103-1.719-5.643-5.254-5.772-10.519v-.448c.002.9.36 1.762.995 2.399s1.498.995 2.397.996h5.264c5.505 0 9.195-2.592 10.957-5.786 1.49-2.696 1.613-5.815.311-8.158.079.138.155.276.228.418l.186.358.134.276.142.305c.104.238.209.477.301.717l.13.345.117.335.023.067c.038.109.073.209.107.33a14.93 14.93 0 0 1 .364 1.383c.023.111.046.209.067.33l.05.28.046.28.056.393.042.349c.006.03.009.061.011.092 0 .075.015.153.021.232a6.2 6.2 0 0 1 .027.345c.015.192.023.383.029.573s.008.328.008.496z" fill="#01438d"/><path d="M23.732 30.01l-.238.132-.451.232-.928.418-.474.188-.435.157-.351.117-.383.113a1.2 1.2 0 0 1-.148.046l-.276.073-.282.069c-.044.015-.088.026-.134.033l-.385.084-.328.065-.399.071-.418.058-.364.042-.359.035-.378.029-.504.023h-.504-.439l-.28-.012a1.7 1.7 0 0 1-.178 0c-.082 0-.165 0-.245-.015-.152 0-.305-.023-.453-.038h-.021l-.47-.056-.295-.042-.376-.059-.399-.075-.38-.082-.269-.063-.318-.082-.627-.182-.384-.128-1.386-.542-.261-.121-.706-.351-.33-.182-.33-.19-.316-.207a15.51 15.51 0 0 1-1.536-1.096l-.261-.209-.245-.209-.263-.238-.836-.822-.332-.36-.33-.385-.219-.268c-.003-.007-.006-.013-.01-.019l-.148-.188-.247-.324-.328-.464-.249-.383c-.011-.014-.021-.028-.029-.044l-.238-.389-.153-.259c-1.302-2.349-1.179-5.468.311-8.158 1.718-3.106 5.25-5.648 10.51-5.777h.447c-.897-.001-1.758.353-2.395.984a3.4 3.4 0 0 0-1.007 2.387v5.286c0 5.51 2.589 9.204 5.781 10.967 2.625 1.454 5.655 1.608 7.981.408z" fill="#0156b3"/><path d="M22.036 13.349a3.4 3.4 0 0 0-.995-2.399c-.636-.636-1.497-.995-2.396-.996h-5.281c-5.505 0-9.195 2.592-10.957 5.786-1.49 2.696-1.613 5.815-.311 8.158a10.07 10.07 0 0 1-.228-.418l-.186-.358-.134-.276-.142-.305a16.14 16.14 0 0 1-.431-1.062l-.117-.335-.015-.056c-.038-.109-.073-.209-.107-.33a14.94 14.94 0 0 1-.364-1.383c-.023-.111-.046-.209-.067-.331-.063-.318-.111-.628-.153-.954-.025-.119-.038-.232-.05-.349l-.031-.324-.027-.345-.038-.565c-.015-.182 0-.337 0-.504v-.439c0-.096 0-.192.01-.291a1.66 1.66 0 0 1 .01-.178c0-.082 0-.165.015-.245 0-.153.023-.305.038-.454v-.021a8.77 8.77 0 0 1 .056-.471l.042-.295a10.17 10.17 0 0 1 .059-.377c.021-.123.059-.282.084-.408l.082-.381.063-.27.082-.318a14.14 14.14 0 0 1 .182-.627c.038-.13.084-.259.127-.385.157-.471.338-.934.541-1.387.038-.088.079-.172.121-.261a13.88 13.88 0 0 1 .351-.707c.059-.111.121-.222.182-.33l.19-.33c.063-.109.13-.209.196-.322a15.88 15.88 0 0 1 1.095-1.537l.209-.261a10.86 10.86 0 0 1 .209-.245c.073-.084.155-.176.238-.264.117-.136.242-.268.372-.397l.19-.19a7.29 7.29 0 0 1 .259-.249c.117-.115.236-.224.359-.333l.385-.33.268-.22.019-.01c.059-.05.123-.1.188-.149.107-.084.209-.167.324-.247.15-.111.305-.209.464-.328l.382-.249c.014-.011.028-.021.044-.029l.389-.238.265-.155c2.347-1.303 5.463-1.18 8.15.312 3.104 1.717 5.643 5.252 5.772 10.517.015.146.017.295.017.448z" fill="#0068d9"/><path d="M29.601 16.242c-1.718 3.106-5.25 5.648-10.51 5.777h-.447c.899-.002 1.761-.36 2.397-.996s.994-1.499.995-2.399v-5.275c0-5.51-2.589-9.204-5.781-10.965-2.694-1.491-5.81-1.615-8.15-.312.138-.079.276-.155.418-.228l.357-.186.276-.134.079-.036.226-.107c.234-.105.476-.209.717-.301l.345-.13c.113-.042.224-.079.334-.117.019-.007.039-.012.059-.017.107-.038.209-.073.328-.107.241-.075.483-.145.727-.209a4.55 4.55 0 0 1 .228-.056c.142-.038.282-.071.418-.1l.347-.073c.056-.013.109-.021.165-.029a3.63 3.63 0 0 1 .387-.067c.134-.015.261-.04.393-.056l.349-.042.092-.01c.075 0 .152-.015.232-.021a6.21 6.21 0 0 1 .345-.027h.171c.132 0 .268-.015.401-.019h.506c.387 0 .767.015 1.149.042.152 0 .305.023.453.038h.079l.249.027.163.023c.688.087 1.368.222 2.038.402l.314.088c.104.031.209.059.313.094l.194.063.19.065c.117.038.234.077.353.123l.372.14.32.132a15.67 15.67 0 0 1 3.101 1.728 9.73 9.73 0 0 1 .345.255l.372.291c.123.1.196.155.295.241l.188.159.023.023.263.238c.291.261.569.533.836.822.058.059.111.117.167.178l.165.182a4.92 4.92 0 0 1 .167.192l.163.192.22.268a2.48 2.48 0 0 1 .159.209c.084.107.167.209.247.324.209.289.418.586.606.891l.238.389a10.52 10.52 0 0 1 .153.259c1.315 2.349 1.191 5.468-.299 8.164z" fill="#017aff"/><path opacity=".01" d="M22.027 12.901c-1.636-9.831-10.587-11.295-16-9.427l.019-.01c.059-.05.123-.1.188-.149.107-.084.209-.167.324-.247.15-.111.305-.209.464-.328l.382-.249c.014-.011.028-.021.044-.029l.389-.238.259-.151c2.347-1.303 5.463-1.18 8.15.312 3.112 1.717 5.647 5.252 5.781 10.517zm7.574 3.341c-1.718 3.106-5.25 5.648-10.51 5.777 9.822-1.638 11.285-10.595 9.419-16.01.056.065.105.132.159.209.084.107.167.209.247.324a14.51 14.51 0 0 1 .606.891l.238.389a10.54 10.54 0 0 1 .153.259c1.302 2.345 1.179 5.464-.311 8.16zM25.975 28.51a15.6 15.6 0 0 1-1.806 1.255l-.232.138-.443.243.238-.132c-2.326 1.201-5.356 1.046-7.979-.408-3.103-1.719-5.643-5.254-5.772-10.519 1.634 9.817 10.583 11.293 15.994 9.423zM3.496 25.977c-.003-.007-.006-.013-.01-.019l-.148-.188-.247-.324-.328-.464-.249-.383c-.011-.014-.021-.028-.029-.044l-.238-.389-.153-.259c-1.302-2.349-1.179-5.468.311-8.158 1.718-3.106 5.25-5.648 10.51-5.777C3.101 11.601 1.628 20.56 3.496 25.977z" fill="#000"/><path d="M56.773 10.133v11.891h-2.686v-1.535c-.949 1.134-2.346 1.691-3.997 1.691-3.517 0-6.09-2.403-6.09-6.101s2.573-6.08 6.09-6.08c1.533 0 2.886.513 3.856 1.581v-1.454l2.827.008zm-2.777 5.945c0-2.268-1.533-3.723-3.587-3.723s-3.563 1.454-3.563 3.718 1.534 3.718 3.563 3.718 3.587-1.442 3.587-3.714zm6.471 2.227V5.5h2.827v12.605c0 1.157.564 1.78 1.683 1.78a2.52 2.52 0 0 0 1.016-.222l.135 2.227c-.539.194-1.109.292-1.683.289-2.512 0-3.978-1.402-3.978-3.874zm14.344 3.074c-.677.534-1.683.8-2.707.8-2.638 0-4.148-1.379-4.148-4.007V7.505h2.819v2.717H74v2.227h-3.225v5.657c0 1.157.608 1.78 1.668 1.78.567.016 1.122-.157 1.578-.49l.791 1.984zM84.1 9.998v2.651a3.69 3.69 0 0 0-.654-.066c-2.141 0-3.494 1.246-3.494 3.675v5.767h-2.819V10.133h2.684v1.737c.81-1.248 2.276-1.872 4.283-1.872zm14.049.135v11.891h-2.671v-1.535c-.949 1.134-2.346 1.691-3.997 1.691-3.517 0-6.1-2.403-6.1-6.101s2.573-6.08 6.1-6.08c1.533 0 2.886.513 3.856 1.581v-1.454l2.812.008zm-2.772 5.945c0-2.273-1.534-3.718-3.576-3.718s-3.563 1.454-3.563 3.718 1.534 3.718 3.563 3.718 3.576-1.446 3.576-3.718zM113.642 5.5v16.523h-2.705v-1.535c-.949 1.134-2.346 1.691-3.997 1.691-3.496 0-6.088-2.403-6.088-6.101s2.592-6.08 6.088-6.08c1.557 0 2.932.513 3.879 1.604V5.5h2.823zm-2.775 10.578c0-2.273-1.554-3.718-3.576-3.718s-3.586 1.454-3.586 3.718 1.557 3.718 3.586 3.718 3.576-1.446 3.576-3.718zM129 10.133V20.22c0 4.321-2.188 6.28-6.248 6.28-2.141 0-4.284-.58-5.614-1.693l1.262-2.092c1.014.868 2.571 1.402 4.195 1.402 2.48 0 3.586-1.18 3.586-3.585v-.557c-.902.98-2.255 1.514-3.744 1.514-3.09 0-5.187-1.647-5.187-5.256v-6.101h2.818v5.754c0 2.138 1.037 3.162 2.819 3.162 1.963-.008 3.303-1.188 3.303-3.577v-5.339H129z" fill="#0d172a"/></svg>