<svg xmlns="http://www.w3.org/2000/svg" width="40" height="41" fill="none"  xmlns:v="https://vecta.io/nano"><style><![CDATA[.B{stroke-linejoin:round}.C{stroke-linecap:round}]]></style><g stroke="#141617" class="B"><circle cx="20.5" cy="21" r="11.5" stroke-dasharray="2 2" class="C"/><g fill="#fff"><circle cx="20.043" cy="9.413" r="1.957"/><circle cx="20.043" cy="32.239" r="1.957"/><circle cx="8.957" cy="21.152" r="1.957"/><circle cx="31.783" cy="21.152" r="1.957"/><path d="M13.452 30.049c-.764.764-2.003.764-2.767 0s-.764-2.003 0-2.767 2.003-.764 2.767 0a1.95 1.95 0 0 1 0 2.767z"/><circle cx="12.069" cy="12.986" r="1.957" transform="rotate(45 12.069 12.986)"/><circle cx="28.209" cy="29.127" r="1.957" transform="rotate(45 28.209 29.127)"/></g></g><circle cx="20.5" cy="21" r="6.5" fill="#fff" stroke="#f0b90b" class="B"/><g stroke="#141617" class="B"><circle cx="20.5" cy="21" r="1.5" fill="#fff"/><path d="M22 21v2" class="C"/><circle cx="28.209" cy="12.525" r="1.957" transform="rotate(45 28.209 12.525)" fill="#fff"/></g></svg>