<svg xmlns="http://www.w3.org/2000/svg" width="40" height="41" fill="none"  xmlns:v="https://vecta.io/nano"><g clip-path="url(#A)"><path d="M20 19.368c3.001 0 5.434-2.433 5.434-5.434S23.001 8.5 20 8.5s-5.434 2.433-5.434 5.434 2.433 5.434 5.434 5.434z" fill="#88bdf3"/><path d="M20 32.5c3.001 0 5.434-2.433 5.434-5.434S23.001 21.632 20 21.632s-5.434 2.433-5.434 5.434S16.999 32.5 20 32.5z" fill="#3075ee"/><path d="M26.566 25.934c3.001 0 5.434-2.433 5.434-5.434s-2.433-5.434-5.434-5.434-5.434 2.433-5.434 5.434 2.433 5.434 5.434 5.434z" fill="#5795f1"/><path d="M13.434 25.934c3.001 0 5.434-2.433 5.434-5.434s-2.433-5.434-5.434-5.434S8 17.499 8 20.5s2.433 5.434 5.434 5.434z" fill="#205fec"/><g fill-rule="evenodd"><path d="M18.715 19.215c-1.969-.477-3.519-2.027-3.996-3.996 1.969.477 3.519 2.027 3.996 3.996z" fill="#134bef"/><path d="M14.719 25.781c.477-1.969 2.027-3.519 3.996-3.996-.477 1.969-2.027 3.519-3.996 3.996z" fill="#0932e8"/><path d="M21.285 21.785c1.969.477 3.519 2.027 3.996 3.996-1.969-.477-3.519-2.027-3.996-3.996z" fill="#164bea"/><path d="M25.281 15.219c-.477 1.969-2.027 3.519-3.996 3.996.477-1.969 2.027-3.519 3.996-3.996z" fill="#3170f1"/></g></g><defs><clipPath id="A"><path fill="#fff" transform="translate(8 8.5)" d="M0 0h24v24H0z"/></clipPath></defs></svg>
