<svg xmlns="http://www.w3.org/2000/svg" width="65" height="64" fill="none"  xmlns:v="https://vecta.io/nano"><path d="M43.333 38.613c1.083 0 2-.833 2-2a2.03 2.03 0 0 0-2-2 2.03 2.03 0 0 0-2 2c0 1.167.917 2 2 2zm-22.083 0c1.083 0 2-.833 2-2a2.03 2.03 0 0 0-2-2 2.03 2.03 0 0 0-2 2c0 1.167.917 2 2 2zm22.833-12c6.833 3.75 11.5 10.667 12.25 18.833h-48C9 37.28 13.667 30.363 20.5 26.613l-4-6.917c-.083-.167-.083-.333-.083-.5 0-.417.333-.833.833-.833.333 0 .583.25.75.5l4 7c3.167-1.417 6.667-2.167 10.333-2.167s7.083.75 10.25 2.167l4-7c.167-.25.417-.5.75-.5.5 0 .833.417.833.833 0 .167 0 .333-.083.5l-4 6.917z" fill="#0d172a"/></svg>