<svg xmlns="http://www.w3.org/2000/svg" width="64" height="64" fill="none"  xmlns:v="https://vecta.io/nano"><path d="M51.5 10.625h-39c-2.531 0-4.5 2.063-4.5 4.5v33a4.44 4.44 0 0 0 4.5 4.5h39c2.438 0 4.5-1.969 4.5-4.5v-33c0-2.437-2.062-4.5-4.5-4.5zM20 21.5c0 .656-.562 1.125-1.125 1.125h-3.75A1.08 1.08 0 0 1 14 21.5v-3.75c0-.562.469-1.125 1.125-1.125h3.75c.563 0 1.125.563 1.125 1.125v3.75zm30 0c0 .656-.562 1.125-1.125 1.125h-23.25A1.08 1.08 0 0 1 24.5 21.5v-3.75c0-.562.469-1.125 1.125-1.125h23.25c.563 0 1.125.563 1.125 1.125v3.75z" fill="#0d172a"/></svg>