<svg xmlns="http://www.w3.org/2000/svg" width="65" height="64" fill="none"  xmlns:v="https://vecta.io/nano"><path d="M32.31 19.618c.095 0 .189.094.284.094s.284 0 .284-.094-.189-.187-.284-.281c-.189-.094-.379-.094-.473 0-.095 0-.095.094-.095.094 0 .094.189.094.284.187zm-2.083.094c.189 0 .189-.094.284-.094.189-.094.379-.094.379-.187 0 0 0-.094-.095-.094-.095-.094-.284-.094-.473 0-.095.094-.379.187-.284.281 0 .094.095.187.189.094zm21.019 26.141c-.379-.375-.568-1.031-.758-1.78-.095-.843-.379-1.593-.947-2.155-.095-.094-.284-.187-.379-.281s-.284-.094-.379-.187c.852-2.53.473-5.059-.379-7.402-1.041-2.811-2.935-5.247-4.355-6.933-1.704-2.061-3.219-3.935-3.219-6.746.095-4.31.473-12.274-7.196-12.368-9.658 0-7.196 9.744-7.385 12.743-.095 2.155-.568 3.842-2.083 5.997-1.799 2.155-4.355 5.528-5.492 9.088-.568 1.687-.852 3.373-.568 4.966-.663.562-1.136 1.405-1.61 1.968-.379.375-.947.468-1.61.75-.663.187-1.325.562-1.704 1.312-.284.375-.284.75-.284 1.218 0 .375 0 .75.095 1.124.095.75.189 1.405.095 1.874-.473 1.405-.568 2.342-.189 2.998.284.656 1.042 1.031 1.894 1.124 1.61.375 3.787.281 5.586 1.218 1.894.937 3.787 1.312 5.302.937 1.041-.187 1.988-.843 2.462-1.874 1.136 0 2.462-.468 4.545-.656 1.42-.094 3.219.562 5.207.468l.284.562c.757 1.593 2.178 2.342 3.787 2.155 1.609-.094 3.219-1.031 4.545-2.623 1.325-1.499 3.409-2.155 4.829-2.998.758-.375 1.326-.937 1.326-1.686s-.379-1.593-1.42-2.811zM32.594 16.245c.947-2.061 3.219-2.061 4.166-.094.663 1.405.379 2.905-.379 3.841-.189-.094-.568-.281-1.231-.468.095-.094.284-.281.379-.468.473-1.124 0-2.53-.852-2.53-.663-.094-1.326 1.031-1.136 2.155-.379-.187-.852-.375-1.231-.375-.095-.656 0-1.405.284-2.061zm-3.787-1.124c.947 0 1.894 1.312 1.799 3.186-.379.094-.663.187-1.041.375.189-.843-.284-1.874-.852-1.78-.852 0-.947 1.968-.189 2.624.095.094.189 0-.568.468-1.42-1.312-.947-4.872.852-4.872zm-1.325 5.715c.568-.469 1.325-.937 1.325-1.031.473-.375 1.326-1.312 2.651-1.312.663 0 1.515.281 2.462.843.568.375 1.041.468 2.083.843.852.375 1.326.937 1.041 1.78-.284.656-1.041 1.312-2.178 1.687-1.041.281-1.894 1.499-3.598 1.405-.379-.094-.663-.094-.947-.187-.757-.375-1.136-1.031-1.894-1.405-.758-.469-1.231-1.031-1.326-1.499-.189-.468 0-.843.379-1.124zm.284 31.294c-.189 3.279-4.166 3.186-7.101 1.687-2.841-1.499-6.533-.656-7.291-2.061-.189-.468-.189-1.218.284-2.436v-.094c.189-.656.095-1.499-.095-2.155-.095-.75-.095-1.405.095-1.874.379-.656.852-.937 1.42-1.124.947-.281 1.136-.281 1.894-.937.473-.468.852-1.218 1.326-1.686s.947-.75 1.704-.656c.758.187 1.42.656 2.083 1.499l1.799 3.373c.947 1.874 4.071 4.497 3.882 6.465zm-.095-2.436c-.379-.656-.947-1.312-1.42-1.874.757 0 1.42-.187 1.61-.75.189-.656 0-1.405-.663-2.342-1.325-1.78-3.693-3.092-3.693-3.092-1.231-.75-1.988-1.78-2.272-2.811-.379-1.031-.284-2.155 0-3.279.473-2.155 1.704-4.216 2.556-5.528.189-.187.095.281-.852 1.968-.757 1.499-2.272 4.966-.284 7.683a16.81 16.81 0 0 1 1.326-5.715c1.136-2.623 3.598-7.027 3.787-10.587.095.094.379.281.568.375.379.281.757.656 1.136.937 1.231.937 2.746.843 4.071.094.568-.281 1.042-.656 1.515-.843.947-.281 1.61-.75 2.083-1.405.757 2.905 2.462 7.027 3.503 8.995.568 1.124 1.704 3.373 2.272 6.09.284 0 .663 0 1.042.094 1.231-3.373-1.136-6.933-2.272-7.964-.379-.375-.473-.562-.189-.562 1.136 1.031 2.746 3.092 3.314 5.528.284 1.031.284 2.155 0 3.279 1.61.656 3.408 1.687 2.935 3.279h-.379c.284-.937-.379-1.593-2.178-2.436-1.894-.75-3.408-.75-3.598 1.218-1.136.375-1.799 1.312-2.083 2.53-.189 1.031-.284 2.342-.379 3.748-.095.75-.379 1.687-.663 2.717-3.03 2.155-7.29 3.092-10.794.656zm24.333-1.031c-.095 1.499-3.882 1.78-5.965 4.31-1.231 1.499-2.746 2.249-4.166 2.436-1.326.094-2.462-.468-3.124-1.874-.473-1.031-.284-2.155.095-3.373.379-1.312.852-2.717.947-3.842.095-1.405.095-2.623.379-3.56.284-1.031.663-1.687 1.325-1.968 0-.094 0-.094.095-.094 0 1.218.663 2.53 1.704 2.811 1.231.281 2.935-.75 3.693-1.593.852 0 1.515-.094 2.083.468.947.843.757 2.905 1.704 3.935.947 1.124 1.325 1.78 1.231 2.342zM27.86 21.961c.189.187.473.468.757.656.568.469 1.515 1.031 2.556 1.031 1.136 0 2.178-.562 3.03-1.031a18.52 18.52 0 0 0 1.42-.937c.379-.375.568-.656.284-.656s-.284.281-.568.469c-.473.281-.947.749-1.325.937-.663.375-1.894.937-2.841.937s-1.799-.468-2.367-.937c-.284-.187-.568-.468-.758-.562-.095-.187-.095-.468-.379-.468-.095 0-.189.281.189.562z" fill="#0d172a"/></svg>