<svg xmlns="http://www.w3.org/2000/svg" width="65" height="64" fill="none"  xmlns:v="https://vecta.io/nano"><path d="M45.974 33.391c0-3.964 1.821-6.857 5.357-9.106-2.036-2.893-5.035-4.393-8.999-4.714-3.857-.321-8.035 2.143-9.535 2.143-1.607 0-5.25-2.036-8.142-2.036-6 .107-12.321 4.714-12.321 14.249a25.53 25.53 0 0 0 1.5 8.678c1.393 3.964 6.321 13.606 11.464 13.392 2.678 0 4.607-1.928 8.142-1.928 3.428 0 5.143 1.928 8.142 1.928 5.25 0 9.749-8.785 11.035-12.749-6.964-3.321-6.642-9.642-6.642-9.856zm-5.999-17.57c2.893-3.428 2.571-6.642 2.571-7.821-2.571.214-5.571 1.821-7.285 3.75-1.928 2.143-3 4.821-2.785 7.714 2.785.214 5.357-1.178 7.5-3.642z" fill="#0d172a"/></svg>