<svg width="14" height="11" viewBox="0 0 14 11" fill="none" xmlns="http://www.w3.org/2000/svg">
<path d="M1.73071 4.81759C1.54994 4.62527 1.30057 4.51211 1.03685 4.50273C0.773116 4.49335 0.516348 4.5885 0.322376 4.76749C0.128403 4.94648 0.012913 5.19484 0.00101857 5.45855C-0.0108758 5.72227 0.0817872 5.98002 0.258858 6.17576L3.87541 10.101C4.41308 10.6279 5.21409 10.6279 5.71172 10.1311L6.07618 9.7715C7.39236 8.47666 8.70702 7.18025 10.0201 5.88229L10.0602 5.84223C11.2874 4.63236 12.5083 3.41607 13.7228 2.1934C13.9043 2.00329 14.0038 1.74942 13.9999 1.48657C13.9959 1.22371 13.8888 0.97294 13.7017 0.78837C13.5146 0.603801 13.2624 0.500228 12.9996 0.5C12.7368 0.499773 12.4845 0.602909 12.297 0.787154C11.0881 2.00343 9.87327 3.21372 8.65242 4.41795L8.61237 4.45802C7.35406 5.7023 6.09414 6.94495 4.83261 8.18597L1.73071 4.81759Z" fill="#1BC47D"/>
</svg>
