<svg xmlns="http://www.w3.org/2000/svg" width="40" height="41" fill="none"  xmlns:v="https://vecta.io/nano"><rect x="7.5" y="9" width="25" height="22" rx="1.5" fill="#fff" stroke="#141617"/><g fill="#141617"><path d="M8 12.5h24v1H8z"/><rect x="9" y="10.5" width="1" height="1" rx=".5"/><rect x="11" y="10.5" width="1" height="1" rx=".5"/><rect x="13" y="10.5" width="1" height="1" rx=".5"/></g><circle cx="15" cy="22.5" r="4.5" fill="#fff" stroke="#43b581"/><mask id="A" fill="#fff"><path d="M15 17.5a5 5 0 0 1 4.801 3.604 5 5 0 0 1-2.119 5.616L15 22.5v-5z"/></mask><path d="M15 17.5a5 5 0 0 1 4.801 3.604 5 5 0 0 1-2.119 5.616L15 22.5v-5z" fill="#fff" stroke="#43b581" stroke-width="2" stroke-linejoin="round" mask="url(#A)"/><mask id="B" fill="#fff"><path d="M15 17.5a5 5 0 0 1 4.974 4.491L15 22.5v-5z"/></mask><path d="M15 17.5a5 5 0 0 1 4.974 4.491L15 22.5v-5z" fill="#fff" stroke="#43b581" stroke-width="2" stroke-linejoin="round" mask="url(#B)"/><g fill="#141617"><rect x="22" y="22.5" width="1" height="4" rx=".5"/><rect x="24" y="20.5" width="1" height="6" rx=".5"/><rect x="26" y="21.5" width="1" height="5" rx=".5"/><rect x="28" y="17.5" width="1" height="9" rx=".5"/></g></svg>