<svg xmlns="http://www.w3.org/2000/svg" width="40" height="41" fill="none"  xmlns:v="https://vecta.io/nano"><g fill="#fff" stroke="#141617"><rect x="5.5" y="7" width="27" height="7" rx="1.5"/><rect x="6.5" y="17" width="27" height="7" rx="1.5"/><rect x="7.5" y="27" width="27" height="7" rx="1.5"/></g><path d="M29 9c0-.276.227-.506.495-.438a2 2 0 0 1 .164 3.826 2 2 0 0 1-2.253-3.097c.167-.22.488-.181.66.035s.119.531.012.786a.99.99 0 0 0-.059.192 1 1 0 0 0 1.842.705 1 1 0 0 0-.216-1.273.98.98 0 0 0-.166-.114C29.237 9.49 29 9.276 29 9zm1 10c0-.276.227-.506.495-.438a2 2 0 0 1 1.152 3.073 2 2 0 0 1-3.282.016c-.159-.226-.025-.52.233-.618s.542.047.752.227l.034.028a1 1 0 0 0 1.614-.728 1 1 0 0 0-.481-.916l-.038-.022C30.237 19.49 30 19.276 30 19zm1 10c0-.276.227-.506.495-.438a2 2 0 0 1 1.051 3.207c-.175.213-.495.163-.658-.06s-.099-.535.018-.785c.018-.038.033-.078.046-.118a1 1 0 0 0-.473-1.183C31.237 29.49 31 29.276 31 29z" fill="#017aff"/><g fill="#141617"><rect x="19" y="9.5" width="4" height="1" rx=".5"/><rect x="19" y="19.5" width="3" height="1" rx=".5"/><rect x="20" y="29.5" width="7" height="1" rx=".5"/><rect x="8" y="9.5" width="8" height="1" rx=".5"/><rect x="9" y="19.5" width="6" height="1" rx=".5"/><rect x="10" y="29.5" width="7" height="1" rx=".5"/></g></svg>