<svg xmlns="http://www.w3.org/2000/svg" width="40" height="41" fill="none"  xmlns:v="https://vecta.io/nano"><style><![CDATA[.B{stroke-linejoin:round}.C{stroke:#141617}.D{stroke-linecap:round}.E{fill:#f0b90b}]]></style><path d="M31 8.5H12a2 2 0 0 0-2 2v8.835V24.5a2 2 0 0 0 2 2h4.54H31a2 2 0 0 0 2-2v-14a2 2 0 0 0-2-2z" fill="#fff"/><path d="M18.372 26.5H31a2 2 0 0 0 2-2v-14a2 2 0 0 0-2-2H12a2 2 0 0 0-2 2v9.154" class="B C D"/><circle opacity=".32" cx="31.25" cy="31.75" r="1.875" fill-opacity=".24" class="E"/><circle cx="30.625" cy="31.125" r="1.875" fill="#fff"/><path d="M29.375 29.727a1.87 1.87 0 0 1 1.25-.477c1.035 0 1.875.84 1.875 1.875S31.661 33 30.625 33a1.87 1.87 0 0 1-1.25-.477" stroke="#f0b90b" class="B D"/><circle cx="28.75" cy="31.75" r="1.875" fill-opacity=".24" style="mix-blend-mode:multiply" opacity=".32" class="E"/><g class="B"><circle cx="28.125" cy="31.125" r="1.875" fill="#fff" stroke="#f0b90b"/><g class="C"><path d="M13 16.66l2.764 2.115 2.738-3.796 3.651 8.522 4.292-12L30 13.82" class="D"/><circle cx="28.125" cy="31.125" r="1.875"/></g></g><g fill="#fff"><circle cx="11.563" cy="27.688" r="6.563"/><circle cx="11.724" cy="27.526" r="6.224" class="B C"/></g><path d="M6.875 27.375h1.25" class="B C D"/><g class="E"><path d="M11.246 27.526a.5.5 0 1 0 1 0h-1zm1-3.362a.5.5 0 1 0-1 0h1zm0 3.362v-3.362h-1v3.362h1z"/><path d="M11.624 27.041a.5.5 0 1 0 .243.97l-.243-.97zm3.605.13a.5.5 0 1 0-.242-.97l.242.97zm-3.362.84l3.362-.84-.242-.97-3.362.84.243.97z"/></g><path d="M8.275 30.859l1.181-.984m2.419 2.5v-1.25m5.531 2.266l.957 1.018m.31-2l1.408.648m-1.064-2.124l1.322.072" class="B C D"/></svg>