<svg xmlns="http://www.w3.org/2000/svg" xmlns:xlink="http://www.w3.org/1999/xlink" width="65" height="64" fill="none" xmlns:v="https://vecta.io/nano"><style><![CDATA[.B{fill:#fff}.C{stroke:#0d172a}.D{stroke-linejoin:round}.E{stroke-linecap:round}.F{fill:#cc01ff}]]></style><path d="M36.818 39.942c8.935 0 16.178-7.15 16.178-15.971S45.753 8 36.818 8 20.64 15.15 20.64 23.971s7.243 15.971 16.178 15.971z" style="mix-blend-mode:multiply" opacity=".4" class="F"/><g class="B"><path d="M35.173 45.826c8.487 0 15.367-6.792 15.367-15.17s-6.88-15.17-15.367-15.17-15.367 6.792-15.367 15.17 6.88 15.17 15.367 15.17z"/><path d="M54.05 53.34v1.539a1.07 1.07 0 0 1-.145.576 1.09 1.09 0 0 1-.431.414c-.18.096-.383.14-.587.128s-.401-.081-.567-.197l-3.254-2.235a1.12 1.12 0 0 0-.591-.225H36.733c-.282-.005-.551-.118-.752-.314s-.316-.461-.323-.74V41.179c0-.289.116-.566.323-.77a1.11 1.11 0 0 1 .78-.319h16.185a1.11 1.11 0 0 1 .78.319c.207.204.323.481.323.77V53.34z" class="C D"/></g><path d="M39.966 43.935h9.378m-7.043 4.281h7.042" class="E C D"/><path d="M50.07 34.832a13.65 13.65 0 0 1-2.635 8.054 13.94 13.94 0 0 1-6.908 5.011 14.12 14.12 0 0 1-8.573.077c-2.795-.863-5.244-2.573-6.999-4.887s-2.729-5.115-2.782-8.005.817-5.724 2.486-8.099a13.93 13.93 0 0 1 6.815-5.135 14.12 14.12 0 0 1 8.57-.23" style="mix-blend-mode:multiply" opacity=".4" class="F"/><use xlink:href="#B" class="B"/><use xlink:href="#B" class="C D E"/><path d="M19.251 37.095c3.677 0 6.658-2.943 6.658-6.573s-2.981-6.573-6.658-6.573-6.658 2.943-6.658 6.573 2.981 6.573 6.658 6.573z" style="mix-blend-mode:multiply" opacity=".4" class="F"/><path d="M40.25 35.246l-5.077-3.733v-8.105" class="B"/><g class="C D"><path d="M40.25 35.246l-5.077-3.733v-8.105" class="E"/><path d="M42.899 22.762h12.105c-.581-1.085-.898-2.288-.926-3.515 0-4.218.164-9.223-5.148-9.223-3.817 0-5.198 4.45-5.034 9.138a7.7 7.7 0 0 1-.997 3.599z" class="B"/></g><use xlink:href="#C" class="B"/><g class="C D"><g class="E"><use xlink:href="#C"/><path d="M55.667 29.327v4.878"/></g><path d="M16.325 34.206c3.677 0 6.658-2.943 6.658-6.572s-2.981-6.573-6.658-6.573-6.658 2.943-6.658 6.573 2.981 6.572 6.658 6.572z" class="B"/><path d="M16.325 24.639v2.995" class="E"/></g><path d="M47.797 24.119a.5.5 0 0 0 .489.395h.809a.5.5 0 1 0 0-1h-.809a.5.5 0 0 0-.489.605z" fill="#0d172a"/><path d="M19.251 52.377c1.833 0 3.318-1.467 3.318-3.276s-1.486-3.276-3.318-3.276-3.318 1.467-3.318 3.276 1.486 3.276 3.318 3.276z" class="F"/><defs ><path id="B" d="M50.54 30.656a15.03 15.03 0 0 1-2.907 8.863c-1.887 2.58-4.549 4.509-7.608 5.512a15.55 15.55 0 0 1-9.437.08c-3.076-.952-5.771-2.835-7.703-5.382s-3.003-5.631-3.061-8.813.899-6.301 2.737-8.916 4.462-4.593 7.501-5.653a15.55 15.55 0 0 1 9.434-.256"/><path id="C" d="M51.081 23.971a2.48 2.48 0 0 1-.785 1.678c-.47.44-1.092.685-1.739.685s-1.27-.245-1.739-.685a2.48 2.48 0 0 1-.785-1.678"/></defs></svg>