<svg xmlns="http://www.w3.org/2000/svg" width="107" height="20" fill="none"  xmlns:v="https://vecta.io/nano"><g clip-path="url(#A)"><g fill="#00b67a"><path d="M20 0H0v20h20V0zm21.667 0h-20v20h20V0zm21.666 0h-20v20h20V0zM85 0H65v20h20V0zm21.667 0h-20v20h20V0z"/></g><g fill="#fff"><path d="M10 13.479l3.042-.771 1.271 3.917L10 13.479zm7-5.063h-5.354L10 3.375 8.354 8.417H3l4.333 3.125-1.646 5.042 4.333-3.125 2.667-1.917L17 8.417zm14.667 5.063l3.042-.771 1.271 3.917-4.313-3.146zm7-5.063h-5.354l-1.646-5.042-1.646 5.042h-5.354L29 11.542l-1.646 5.042 4.333-3.125 2.667-1.917 4.313-3.125zm14.666 5.063l3.042-.771 1.271 3.917-4.312-3.146zm7-5.063h-5.354l-1.646-5.042-1.646 5.042h-5.354l4.333 3.125-1.646 5.042 4.333-3.125 2.667-1.917 4.313-3.125zM75 13.479l3.042-.771 1.271 3.917L75 13.479zm7-5.063h-5.354L75 3.375l-1.646 5.042H68l4.333 3.125-1.646 5.042 4.333-3.125 2.667-1.917L82 8.417zm14.667 5.063l3.042-.771 1.271 3.917-4.312-3.146zm7-5.063h-5.355l-1.646-5.042-1.646 5.042h-5.354L94 11.542l-1.646 5.042 4.333-3.125 2.667-1.917 4.313-3.125z"/></g></g><defs><clipPath id="A"><path fill="#fff" d="M0 0h106.667v20H0z"/></clipPath></defs></svg>