<svg xmlns="http://www.w3.org/2000/svg" width="40" height="41" fill="none"  xmlns:v="https://vecta.io/nano"><g stroke="#141617"><rect x="7.5" y="9" width="25" height="23" rx="1.5" fill="#fff"/><path d="M9.5 14l2 2 2 .5 3.5-4 2 5.5 3-1 1.5 2.5 2 1L27 28l1.5-3" stroke-linecap="round" stroke-linejoin="round"/></g><path d="M13.5 22v-3.5m0 0L15 20m-1.5-1.5L12 20m7.5 4v-3.5m0 0L21 22m-1.5-1.5L18 22m5.5 7v-3.5m0 0L25 27m-1.5-1.5L22 27" stroke-linecap="round" stroke-linejoin="round" stroke="#017aff"/></svg>