<svg xmlns="http://www.w3.org/2000/svg" width="40" height="41" fill="none"  xmlns:v="https://vecta.io/nano"><g fill="#fff"><path d="M19.377 17.728l-5.636 2.882a1 1 0 0 0 0 1.781l5.636 2.882a1 1 0 0 0 .895.008l5.892-2.882a1 1 0 0 0 0-1.797l-5.892-2.882a1 1 0 0 0-.895.008z" stroke="#017aff" stroke-linejoin="round"/><rect x="12.5" y="6" width="15" height="3" rx="1.5" stroke="#141617"/></g><g stroke-linejoin="round" stroke-linecap="round"><path d="M11 30.5l-4 4" stroke="#141617"/><path d="M7 30.5l4 4" stroke="#141617"/><path d="M28 32.5l2.308 2 3.692-4" stroke="#017aff"/><path d="M29 21.5h1a1 1 0 0 1 1 1V28m-20-6.5h-1a1 1 0 0 0-1 1V28m7-16.5v1a1 1 0 0 0 1 1h2.5a1 1 0 0 1 1 1v1" stroke="#141617"/></g></svg>