<svg xmlns="http://www.w3.org/2000/svg" width="40" height="41" fill="none"  xmlns:v="https://vecta.io/nano"><g fill="#fff" stroke="#141617"><circle cx="20" cy="20.5" r="14.5"/><circle cx="20" cy="20.5" r="7.5"/></g><mask id="A" fill="#fff"><path d="M35 20.5a15 15 0 0 1-1.855 7.226l-7.009-3.853a7 7 0 0 0 .866-3.373H35z"/></mask><path d="M35 20.5a15 15 0 0 1-1.855 7.226l-7.009-3.853a7 7 0 0 0 .866-3.373H35z" fill="#fff" stroke="#017aff" stroke-width="2" mask="url(#A)"/><mask id="B" fill="#fff"><path d="M20 35.5a15 15 0 0 1-7.226-1.855l3.854-7.01a7 7 0 0 0 3.372.866v8z"/></mask><path d="M20 35.5a15 15 0 0 1-7.226-1.855l3.854-7.01a7 7 0 0 0 3.372.866v8z" fill="#fff" stroke="#017aff" stroke-width="2" mask="url(#B)"/><mask id="C" fill="#fff"><path d="M5 20.5a15 15 0 0 1 1.855-7.226l7.01 3.854A7 7 0 0 0 13 20.5H5z"/></mask><path d="M5 20.5a15 15 0 0 1 1.855-7.226l7.01 3.854A7 7 0 0 0 13 20.5H5z" fill="#fff" stroke="#017aff" stroke-width="2" mask="url(#C)"/><mask id="D" fill="#fff"><path d="M20 5.5a15 15 0 0 1 7.226 1.855l-3.854 7.01A7 7 0 0 0 20 13.5V5.5z"/></mask><path d="M20 5.5a15 15 0 0 1 7.226 1.855l-3.854 7.01A7 7 0 0 0 20 13.5V5.5z" fill="#fff" stroke="#017aff" stroke-width="2" mask="url(#D)"/></svg>