<svg xmlns="http://www.w3.org/2000/svg" xmlns:xlink="http://www.w3.org/1999/xlink" width="101" height="100" fill="none" xmlns:v="https://vecta.io/nano"><style><![CDATA[.B{fill:#fff}.C{stroke-linecap:round}.D{stroke:#0d172a}.E{stroke-linejoin:round}]]></style><path d="M36.663 60.69a10.51 10.51 0 0 0-10.76 10.24v21.94" class="B"/><path d="M36.663 60.69a10.51 10.51 0 0 0-10.76 10.24v21.94m60.91-19.95v7.73" class="C D E"/><path d="M85.183 64.71c.613.974 1.062 2.041 1.33 3.16l-1.33-3.16z" class="B"/><path d="M85.183 64.71c.613.974 1.062 2.041 1.33 3.16" class="C D E"/><path d="M68.833 59.72h7.33a10.6 10.6 0 0 1 6.42 2.15" class="B"/><path d="M68.833 59.72h7.33a10.6 10.6 0 0 1 6.42 2.15" class="C D E"/><path d="M45.223 68.96s-12.56 3-16 13.82L25.833 93" class="B"/><path d="M45.223 68.96s-12.56 3-16 13.82L25.833 93" class="C D E"/><path d="M69.273 65.63s12.56 3 16 13.83c.61 1.9.63 2.76 1.06 4.04" class="B"/><path d="M69.273 65.63s12.56 3 16 13.83c.61 1.9.63 2.76 1.06 4.04m-40.66-13.32s-6.84 19.88 13.5 19.88 13.82-23.09 13.82-23.09" class="C D E"/><path d="M49.123 67.07v9.55s1.18 8.68 9.39 8.68c12.22 0 10.64-11.3 10.64-11.3l-1.84-21.38" class="B"/><path d="M49.123 67.07v9.55s1.18 8.68 9.39 8.68c12.22 0 10.64-11.3 10.64-11.3l-1.84-21.38" class="C D E"/><g fill="#0d172a"><use xlink:href="#B"/><path d="M43.133 30.81c5.937 0 10.75-4.813 10.75-10.75S49.07 9.31 43.133 9.31s-10.75 4.813-10.75 10.75 4.813 10.75 10.75 10.75z"/><path d="M80.263 37.07c0 13.525-10.965 24.49-24.49 24.49-7.443 0-14.11-8.32-18.602-13.56-3.671-4.283-5.888-4.847-5.888-10.93 0-13.525 10.965-24.49 24.49-24.49s24.49 10.965 24.49 24.49z"/></g><path d="M32.833 41.5l8.17-12.39h25.77v9.43l.46 17.58-17.7-7.06-16.7-7.56z" class="B"/><g fill="#0d172a"><use xlink:href="#B" x="10.31" y="-3.76"/><use xlink:href="#B" x="29.87" y="-3"/></g><path d="M66.773 33.77v1.64" class="C D E"/><use xlink:href="#C" class="B"/><use xlink:href="#C" class="C D E"/><use xlink:href="#D" class="B"/><use xlink:href="#D" class="C D E"/><path d="M65.463 46.73a6.16 6.16 0 0 1 3.69-2.29l-3.69 2.29z" class="B"/><path d="M65.463 46.73a6.16 6.16 0 0 1 3.69-2.29M34.873 75.5v21.24m6.41-25.49l.55 27.25m35.88-28.88v21.34m-6.33-5.66v9.2" class="C D E"/><use xlink:href="#E" class="B"/><g class="D E"><use xlink:href="#E" class="C"/><path d="M50.843 12.58l28.25 27.27 3.8-5.26-27.54-26.32-4.51 4.31z" class="B"/><path d="M58.843 12.83l-3.6 3.02m7.61 1.2l-2.78 3.01m8.88 1.21l-3.49 4.24m8.92 1.53l-3 3.76m6.66.68L75.283 35" class="C"/></g><defs ><path id="B" d="M32.383 41.55c5.937 0 10.75-4.813 10.75-10.75s-4.813-10.75-10.75-10.75-10.75 4.813-10.75 10.75 4.813 10.75 10.75 10.75z"/><path id="C" d="M36.143 35.41l-5.756 10.1c-.76 1.333.203 2.99 1.738 2.99h4.398v7s.59 14.68 15.24 14.68 15-14.68 15-14.68V53"/><path id="D" d="M64.323 39.95a5.35 5.35 0 0 1 3.57-1.45c3.36 0 6.09 3.31 6.09 7.39s-2.73 7.38-6.09 7.38a5.22 5.22 0 0 1-3-1"/><path id="E" d="M56.333 9.5c3.514-1.199 8.337-1.555 11.942-.669a19.41 19.41 0 0 1 9.438 5.479c8.12 8.19 3.62 18.19 3.62 18.19"/></defs></svg>