<svg xmlns="http://www.w3.org/2000/svg" xmlns:xlink="http://www.w3.org/1999/xlink" width="101" height="100" fill="none" xmlns:v="https://vecta.io/nano"><style><![CDATA[.B{stroke-linecap:round}.C{stroke-linejoin:round}.D{fill:#fff}.E{stroke:#0d172a}.F{fill:#0d172a}]]></style><path d="M48.907 94.13l-1.74 5.37h8l-2.17-5.37h-4.09z" class="F"/><path d="M43.097 69.14L40.667 80s2 5.45 10 5.45c0 0 6.93-.1 10-4.47l-3.2-11.57" class="D"/><path d="M43.097 69.14L40.667 80s2 5.45 10 5.45c0 0 6.93-.1 10-4.47l-3.2-11.57m-24.54 19.41l6.24 9.18m-9.87-14.61l.83 1.24" class="B C E"/><path d="M35.737 57.26s-7.4 1.36-11.11 5.18l7.31 8.4-7.31 5.56 2.41 3.6" class="D"/><path d="M35.737 57.26s-7.4 1.36-11.11 5.18l7.31 8.4-7.31 5.56 2.41 3.6" class="B C E"/><path d="M62.667 98l15.31-21.6-7.31-5.56 7.31-8.4c-3.71-3.82-11.1-5.18-11.1-5.18" class="D"/><path d="M62.667 98l15.31-21.6-7.31-5.56 7.31-8.4c-3.71-3.82-11.1-5.18-11.1-5.18" class="B C E"/><use xlink:href="#B" class="D"/><use xlink:href="#B" class="B C E"/><use xlink:href="#C" class="D"/><use xlink:href="#C" class="B C E"/><path d="M31.037 24.02s1.19-14.2 3.56-17.32a5.59 5.59 0 0 1 3.984-2.178 5.59 5.59 0 0 1 4.286 1.498c2 1.83 9.65 3.25 14.13 0a4.7 4.7 0 0 1 5.53-.4 5.8 5.8 0 0 1 2.55 3.64l4.22 17.12 11.45 7.25a1.4 1.4 0 0 1 .591 1.571 1.4 1.4 0 0 1-1.341 1.009h-60.83a1.4 1.4 0 0 1-1.323-.979 1.4 1.4 0 0 1 .523-1.561l7.35-5.17" class="F"/><path d="M30.327 14.14h37.79m-39.24 6.87h41.63" stroke="#fff" stroke-width="3" class="B C"/><path d="M64.457 46.73a6.16 6.16 0 0 1 3.71-2.29l-3.71 2.29z" class="D"/><path d="M64.457 46.73a6.16 6.16 0 0 1 3.71-2.29m-2.4-10.67v1.64M40.667 80l3.5 19m16.46-18.02l-1.96 17.52" class="B C E"/><path d="M42.717 90.75l7.96-5.3 9 5.3" class="D"/><path d="M42.717 90.75l7.96-5.3 9 5.3" class="B C E"/><use xlink:href="#D" class="D"/><use xlink:href="#D" class="B C E"/><use xlink:href="#E" class="D"/><use xlink:href="#E" class="B C E"/><path d="M48.167 90.32l1.77-1.24a1.38 1.38 0 0 1 1.44-.1l2.18 1.14a1.39 1.39 0 0 1 .61 1.86l-.45.91a1.4 1.4 0 0 1-1.25.77h-3a1.39 1.39 0 0 1-1.18-.64l-.51-.81a1.39 1.39 0 0 1 .39-1.89z" class="F"/><defs ><path id="B" d="M35.517 33.11l-6.215 13.984a1 1 0 0 0 .914 1.406h5.301v7s.59 14.68 15.24 14.68 15.01-14.68 15.01-14.68v-1.06"/><path id="C" d="M63.317 39.95a5.35 5.35 0 0 1 3.57-1.45c3.36 0 6.09 3.31 6.09 7.39s-2.73 7.38-6.09 7.38a5.25 5.25 0 0 1-3-1"/><path id="D" d="M28.087 66.4l-9.92 2.36a10.47 10.47 0 0 0-5.607 3.391C11.102 73.852 9.828 74.765 9.667 77c0 .32 0 .5.5 1.5"/><path id="E" d="M75.497 66.4l9.88 2.36a10.62 10.62 0 0 1 4.52 2.313c1.298 1.125 2.143 2.828 2.77 4.427"/></defs></svg>