<svg xmlns="http://www.w3.org/2000/svg" xmlns:xlink="http://www.w3.org/1999/xlink" width="100" height="100" fill="none" xmlns:v="https://vecta.io/nano"><style><![CDATA[.B{stroke-linejoin:round}.C{fill:#fff}.D{stroke-linecap:round}.E{stroke:#0d172a}]]></style><g fill="#0d172a"><path d="M18.97 18.13s20.29-23.2 49.59-7.41c17.17 9.26 3.75 37.78 3.75 37.78L65.5 36.2"/><path d="M65.81 28.7l-.31 8.18h-6.52v-3.11c.41-7.2-3.85-11.7-14.73-11.7S31.32 32.55 31.32 32.55l-1.52 6s-5.68 6.39-10.15.55-.93-12.19-.93-12.19-5.44-.82-1.33-6.87 22.12-15.38 41.83-3.77"/></g><use xlink:href="#B" class="C"/><use xlink:href="#B" class="B D E"/><use xlink:href="#C" class="C"/><use xlink:href="#C" class="B D E"/><path d="M63.79 46.73a6.16 6.16 0 0 1 3.71-2.29l-3.71 2.29z" class="C"/><g class="E B"><path d="M63.79 46.73a6.16 6.16 0 0 1 3.71-2.29m-2.4-10.67v1.64" class="D"/><path d="M53.56 33.55H41.05a1 1 0 0 0-1 1v5.31a1 1 0 0 0 1 1h12.51a1 1 0 0 0 1-1v-5.31a1 1 0 0 0-1-1zm-19.96 0h-8.47a1 1 0 0 0-1 1v5.31a1 1 0 0 0 1 1h8.47a1 1 0 0 0 1-1v-5.31a1 1 0 0 0-1-1z" class="C"/><path d="M36.02 37.2h2.73" class="D"/><path d="M60.63 66.23l-7.83 18.9 16.14-12.44-8.31-6.46zm-18.14 2.22l1.47 14.61-9.71-11.68 8.24-2.93z" class="C"/></g><path d="M43.96 76.18s4.3 6.69 12 1.27l-12-1.27z" class="C"/><path d="M43.96 76.18s4.3 6.69 12 1.27" class="B D E"/><path d="M52.8 85.13l-7.75 9.05L47.5 99" class="C"/><path d="M52.8 85.13l-7.75 9.05L47.5 99m-3.54-15.95l2.51 9.47" class="B D E"/><path d="M33.92 72.91S18.6 74.87 17 86.5l16.92-13.59z" class="C"/><path d="M33.92 72.91S18.6 74.87 17 86.5" class="B D E"/><path d="M82 79c1.449 1.115 2.859 3.781 3.48 5.5L82 79z" class="C"/><path d="M82 79c1.449 1.115 2.859 3.781 3.48 5.5" class="B D E"/><path d="M77.3 76.32a10.88 10.88 0 0 1 1.81 1l-1.81-1z" class="C"/><path d="M77.3 76.32a10.88 10.88 0 0 1 1.81 1" class="B D E"/><path d="M68.56 73.5a29.33 29.33 0 0 1 4.38 1.09l-4.38-1.09z" class="C"/><path d="M68.56 73.5a29.33 29.33 0 0 1 4.38 1.09m-2.03 15.45L72 94m-45.22-5L26 93.24" class="B D E"/><defs ><path id="B" d="M28.36 43.27l-1.083 2.41a2 2 0 0 0 1.824 2.82h5.749v7s.59 14.68 15.24 14.68S65.1 55.5 65.1 55.5v-1.06"/><path id="C" d="M62.65 39.95a5.35 5.35 0 0 1 3.57-1.45c3.36 0 6.09 3.31 6.09 7.39s-2.73 7.38-6.09 7.38a5.25 5.25 0 0 1-3-1"/></defs></svg>