<svg xmlns="http://www.w3.org/2000/svg" width="64" height="64" fill="none"  xmlns:v="https://vecta.io/nano"><style><![CDATA[.B{stroke:#0d172a}.C{stroke-linecap:round}.D{stroke-linejoin:round}.E{fill:#fff}]]></style><path d="M40.04 50.059c8.814 0 15.96-7.039 15.96-15.722s-7.145-15.722-15.96-15.722-15.96 7.039-15.96 15.722 7.145 15.722 15.96 15.722z" fill="#5cb9ff" style="mix-blend-mode:multiply" opacity=".4"/><path d="M12.643 34.406v3.626" class="B C D"/><path d="M30.315 40.893v3.84h-4.413v3.099h11.814V44.77h-4.171v-3.877" class="E"/><g class="B D"><path d="M30.315 40.893v3.84h-4.413v3.099h11.814V44.77h-4.171v-3.877" class="C"/><g class="E"><path d="M43.842 17.592H19.769c-1.977 0-3.579 1.579-3.579 3.526v16.255c0 1.947 1.602 3.526 3.579 3.526h24.073c1.977 0 3.579-1.579 3.579-3.526V21.118c0-1.947-1.602-3.526-3.579-3.526z"/><path d="M41.951 20.83H21.667c-1.203 0-2.178.961-2.178 2.146v12.541c0 1.185.975 2.146 2.178 2.146h20.284c1.203 0 2.178-.961 2.178-2.146V22.975c0-1.185-.975-2.146-2.178-2.146z"/></g></g><path d="M38.964 14.826h8.986a2.87 2.87 0 0 1 2.013.821c.534.526.834 1.239.834 1.983v4.561c0 .744-.3 1.457-.834 1.983a2.87 2.87 0 0 1-2.013.821h-7.999a3.85 3.85 0 0 1-2.702-1.102c-.717-.706-1.119-1.663-1.119-2.662V17.63c0-.744.3-1.457.834-1.983a2.87 2.87 0 0 1 2.013-.821h-.013zm-25.646 1.11h14.801a2.87 2.87 0 0 1 2.013.821c.534.526.834 1.239.834 1.983v8.545a4.22 4.22 0 0 1-1.276 2.988 4.35 4.35 0 0 1-3.042 1.235h-13.33a2.87 2.87 0 0 1-2.013-.821c-.534-.526-.834-1.239-.834-1.983v-9.963a2.77 2.77 0 0 1 .217-1.073 2.8 2.8 0 0 1 .617-.91 2.87 2.87 0 0 1 2.013-.821z" style="mix-blend-mode:multiply" opacity=".4" fill="#5cb9ff"/><g class="B D"><path d="M39.913 34.864v4.975a3.51 3.51 0 0 0 1.052 2.489 3.62 3.62 0 0 0 2.527 1.036h8.381a3.62 3.62 0 0 0 2.523-1.039 3.51 3.51 0 0 0 1.05-2.487v-4.975c-.003-.933-.382-1.828-1.052-2.487a3.61 3.61 0 0 0-2.527-1.032H37.321l2.592 3.52zM25.647 13.64h-14.8C9.275 13.64 8 14.895 8 16.444v9.994c0 1.549 1.275 2.804 2.847 2.804h14.801c1.572 0 2.847-1.256 2.847-2.804v-9.994c0-1.549-1.274-2.804-2.847-2.804zM49.542 13h-8.986c-1.572 0-2.847 1.256-2.847 2.804v4.567c0 1.549 1.274 2.804 2.847 2.804h8.986c1.572 0 2.847-1.256 2.847-2.804v-4.567c0-1.549-1.274-2.804-2.847-2.804z" class="E"/><path d="M44.129 35.153h6.668m-6.668 3.902h4.445" class="C"/></g><path d="M41.142 16.4l1.942 2.535 1.968-2.258 2.828 3.005" class="E"/><path d="M41.142 16.4l1.942 2.535 1.968-2.258 2.828 3.005" class="B C D"/><path d="M11.961 17.592v7.296h12.852" class="E"/><path d="M11.961 17.592v7.296h12.852" class="B C D"/><path d="M15.432 21.739l3.337-2.804 2.153 1.914 2.987-2.761" class="E"/><path d="M15.432 21.739l3.337-2.804 2.153 1.914 2.987-2.761" class="B C D"/><path d="M17.349 51c1.776 0 3.216-1.419 3.216-3.168s-1.44-3.168-3.216-3.168-3.216 1.419-3.216 3.168S15.573 51 17.349 51z" fill="#017aff"/></svg>