<svg xmlns="http://www.w3.org/2000/svg" width="40" height="41" fill="none"  xmlns:v="https://vecta.io/nano"><g stroke="#141617"><rect x="7.5" y="9" width="25" height="22" rx="1.5" fill="#fff"/><path d="M10 23.559l1.707 4.941 1.58-4L15 26l1.5-4.5 1.723 2.059L20 16.5" stroke-linecap="round" stroke-linejoin="round"/></g><g fill="#141617"><path d="M8 12.5h24v1H8z"/><rect x="9" y="10.5" width="1" height="1" rx=".5"/><rect x="11" y="10.5" width="1" height="1" rx=".5"/><rect x="13" y="10.5" width="1" height="1" rx=".5"/></g><rect x="22" y="24.5" width="8" height="2" rx="1" fill="#f0b90b"/><g fill="#141617"><rect x="22" y="17.5" width="8" height="1" rx=".5"/><rect x="22" y="19.5" width="2" height="1" rx=".5"/><rect x="22" y="21.5" width="3" height="1" rx=".5"/><rect x="25" y="19.5" width="5" height="1" rx=".5"/><rect x="27" y="21.5" width="3" height="1" rx=".5"/></g></svg>